<svg id="Layer_1" data-name="Layer 1" xmlns="http://www.w3.org/2000/svg" viewBox="0 0 240.23 62.65"><defs><style>.cls-1{fill:#203d79;}.cls-1,.cls-2,.cls-3{fill-rule:evenodd;}.cls-2{fill:#35bfc9;}.cls-3{fill:#0078c1;}</style></defs><title>logo+text</title><path class="cls-1" d="M90.81,42.57h11.33L96.5,27.32,90.81,42.57Zm20.91,13.9h-3.93a.77.77,0,0,1-.72-.5l-3.42-9.18H89.35L85.93,56a.77.77,0,0,1-.72.5H81.6a.77.77,0,0,1-.77-.76.87.87,0,0,1,0-.28l13-33.19a.76.76,0,0,1,.72-.49h4.06a.77.77,0,0,1,.72.49l13,33.19a.76.76,0,0,1-.43,1,.92.92,0,0,1-.28,0Zm34,0h-3.84a.76.76,0,0,1-.63-.33L122.4,29.3V55.7a.76.76,0,0,1-.77.77h-3.37a.77.77,0,0,1-.77-.76h0V22.51a.77.77,0,0,1,.77-.76h3.9a.79.79,0,0,1,.63.32l18.77,26.8V22.51a.77.77,0,0,1,.77-.76h3.37a.76.76,0,0,1,.77.76V55.7a.76.76,0,0,1-.77.77h0m46.09,0h-3.47a.76.76,0,0,1-.77-.76h0V26.12H175.84a.77.77,0,0,1-.77-.77h0V22.51a.77.77,0,0,1,.77-.76h28.38a.77.77,0,0,1,.77.76v2.84a.77.77,0,0,1-.77.77H192.56V55.7a.76.76,0,0,1-.77.77h0m30.64-31.08a12.16,12.16,0,0,0-5.17,1.07,11.64,11.64,0,0,0-3.94,2.94,13.27,13.27,0,0,0-2.53,4.35A15.57,15.57,0,0,0,209.9,39a15.4,15.4,0,0,0,.89,5.23,13.19,13.19,0,0,0,2.53,4.35,12.19,12.19,0,0,0,18.27,0,13.44,13.44,0,0,0,2.53-4.35A15.4,15.4,0,0,0,235,39a15.57,15.57,0,0,0-.89-5.28,13.44,13.44,0,0,0-2.53-4.35,11.75,11.75,0,0,0-4-2.94,12.32,12.32,0,0,0-5.19-1.07m0,32a17.22,17.22,0,0,1-7-1.43,17.77,17.77,0,0,1-9.4-9.72A19.42,19.42,0,0,1,206,32a18.21,18.21,0,0,1,3.74-5.78,17.76,17.76,0,0,1,19.68-3.91,17.75,17.75,0,0,1,5.66,3.91A18,18,0,0,1,238.87,32a18.4,18.4,0,0,1,1.36,7.1,18.64,18.64,0,0,1-1.36,7.14,17.74,17.74,0,0,1-9.42,9.71,17.38,17.38,0,0,1-7,1.43m-58.05,0a16.28,16.28,0,0,1-4.46-.58,18.36,18.36,0,0,1-3.66-1.45,15.65,15.65,0,0,1-2.87-2,14.74,14.74,0,0,1-1.54-1.52.77.77,0,0,1,.06-1.07l2.45-2.23a.77.77,0,0,1,1.08.05c.35.37.73.75,1.13,1.13a11.6,11.6,0,0,0,2.07,1.54,12,12,0,0,0,2.55,1.09,11.14,11.14,0,0,0,3.08.41,8.35,8.35,0,0,0,5.38-1.56A5.14,5.14,0,0,0,171.58,47a4.74,4.74,0,0,0-2.19-4.3,19.18,19.18,0,0,0-6.32-2.32,18.86,18.86,0,0,1-4.07-1.3A11.71,11.71,0,0,1,155.84,37a8.69,8.69,0,0,1-2.79-6.61,9.14,9.14,0,0,1,.73-3.64,8.54,8.54,0,0,1,2.19-3,10.91,10.91,0,0,1,3.66-2.09,15.32,15.32,0,0,1,5.06-.78A14.55,14.55,0,0,1,170.87,22a.76.76,0,0,1,.47.71v3.5a.77.77,0,0,1-.82.72.41.41,0,0,1-.16,0,2.76,2.76,0,0,1-.68-.3,10.66,10.66,0,0,0-2.25-1,10.14,10.14,0,0,0-3-.39,8.45,8.45,0,0,0-2.87.44,6,6,0,0,0-2,1.15,4.34,4.34,0,0,0-1.15,1.58,4.72,4.72,0,0,0-.37,1.77,4.3,4.3,0,0,0,.55,2.22,5.4,5.4,0,0,0,1.59,1.61,10.4,10.4,0,0,0,2.59,1.2c1,.32,2.2.65,3.52,1a27,27,0,0,1,3.79,1.22,11.85,11.85,0,0,1,3.31,2,9.43,9.43,0,0,1,2.33,3.13,10.66,10.66,0,0,1,.86,4.5,9.13,9.13,0,0,1-.94,4.11,10.24,10.24,0,0,1-2.59,3.26,12,12,0,0,1-3.89,2.13,15.22,15.22,0,0,1-4.85.76" transform="translate(0 -8.04)"/><path class="cls-2" d="M46.79,8.16C45.58,49.41,42.19,45,75.9,61.05Z" transform="translate(0 -8.04)"/><path class="cls-3" d="M44.64,8C41.66,50.37,46.31,43.31,0,68.78Z" transform="translate(0 -8.04)"/><path class="cls-1" d="M1.06,70.69c25.32-5.32,56.7-7.88,73.69-7.88C39.4,47.87,47,47.15,1.06,70.69" transform="translate(0 -8.04)"/></svg>