<svg width="380" height="79" viewBox="0 0 380 79" xmlns="http://www.w3.org/2000/svg"><title>518641F3-F363-4404-9235-87555D84B2FD</title><g fill="none" fill-rule="evenodd"><path d="M230.562 42.571h11.33l-5.639-15.253-5.69 15.253zm20.907 13.9h-3.925a.77.77 0 0 1-.72-.5l-3.419-9.183H229.1l-3.417 9.184c-.111.3-.4.5-.72.5h-3.612a.767.767 0 0 1-.716-1.046l13.025-33.19a.771.771 0 0 1 .717-.488h4.065c.317 0 .601.194.717.488l13.026 33.19a.767.767 0 0 1-.716 1.046zM285.454 56.472h-3.842a.768.768 0 0 1-.63-.328l-18.828-26.848v26.409a.768.768 0 0 1-.769.767h-3.37a.768.768 0 0 1-.77-.767v-33.19c0-.424.345-.767.77-.767h3.895a.77.77 0 0 1 .63.327l18.775 26.796V22.515c0-.424.344-.767.77-.767h3.37c.425 0 .768.343.768.767v33.19a.768.768 0 0 1-.769.767M331.545 56.472h-3.475a.768.768 0 0 1-.769-.767V26.12h-11.708a.768.768 0 0 1-.77-.767v-2.84c0-.423.344-.766.77-.766h28.378c.425 0 .77.343.77.767v2.84a.768.768 0 0 1-.77.766h-11.657v29.584a.768.768 0 0 1-.77.767M362.18 25.392c-1.905 0-3.643.36-5.17 1.068a11.824 11.824 0 0 0-3.941 2.94c-1.092 1.244-1.943 2.707-2.532 4.348s-.888 3.419-.888 5.284c0 1.831.3 3.591.888 5.231.587 1.64 1.439 3.102 2.532 4.347a12.148 12.148 0 0 0 3.941 2.969c1.526.725 3.264 1.092 5.17 1.092 1.905 0 3.653-.367 5.195-1.093a12.088 12.088 0 0 0 3.968-2.968c1.09-1.242 1.943-2.705 2.532-4.347.59-1.642.888-3.402.888-5.231 0-1.863-.299-3.641-.888-5.285-.59-1.642-1.442-3.104-2.532-4.346a11.774 11.774 0 0 0-3.969-2.942c-1.542-.708-3.29-1.067-5.194-1.067m0 31.964c-2.493 0-4.848-.481-6.996-1.43a17.91 17.91 0 0 1-5.64-3.906c-1.594-1.64-2.859-3.594-3.759-5.806-.9-2.207-1.357-4.606-1.357-7.13s.457-4.916 1.358-7.107c.9-2.193 2.156-4.138 3.734-5.778 1.574-1.64 3.471-2.954 5.637-3.905 2.167-.95 4.529-1.43 7.023-1.43 2.493 0 4.855.48 7.021 1.43 2.166.951 4.072 2.265 5.665 3.905a18.098 18.098 0 0 1 3.76 5.779c.901 2.195 1.358 4.585 1.358 7.106 0 2.522-.457 4.921-1.358 7.131-.9 2.213-2.166 4.166-3.76 5.806-1.592 1.64-3.499 2.953-5.664 3.904-2.166.95-4.53 1.431-7.022 1.431M304.131 57.356c-1.627 0-3.128-.192-4.464-.572a18.353 18.353 0 0 1-3.656-1.458 15.716 15.716 0 0 1-2.871-1.953 15.235 15.235 0 0 1-1.54-1.527.764.764 0 0 1 .064-1.067l2.447-2.224a.77.77 0 0 1 1.079.042c.352.375.732.753 1.134 1.132.606.57 1.3 1.087 2.063 1.537.76.448 1.621.816 2.557 1.092.933.277 1.97.416 3.082.416 2.287 0 4.096-.524 5.378-1.561 1.282-1.036 1.931-2.455 1.931-4.216 0-1.927-.717-3.332-2.191-4.296-1.454-.948-3.582-1.728-6.323-2.317-1.487-.31-2.857-.747-4.068-1.3-1.212-.552-2.275-1.253-3.16-2.083a8.935 8.935 0 0 1-2.062-2.89c-.485-1.089-.73-2.34-.73-3.721 0-1.277.245-2.504.73-3.644a8.484 8.484 0 0 1 2.193-3.02c.971-.864 2.2-1.565 3.655-2.082 1.455-.518 3.16-.781 5.065-.781 1.697 0 3.181.184 4.412.547.621.183 1.218.396 1.77.633a.767.767 0 0 1 .467.705v3.373c0 .05-.002.093-.004.132a.77.77 0 0 1-.98.69 3.14 3.14 0 0 1-.678-.302 10.884 10.884 0 0 0-2.246-.963c-.85-.26-1.842-.39-2.95-.39-1.11 0-2.075.15-2.871.443-.797.293-1.465.678-1.985 1.145-.52.466-.905 1-1.148 1.588a4.64 4.64 0 0 0-.366 1.77c0 .864.185 1.608.548 2.212.364.606.9 1.149 1.592 1.614.694.467 1.564.87 2.585 1.197 1.017.327 2.2.65 3.52.962 1.284.312 2.557.724 3.79 1.225a11.806 11.806 0 0 1 3.315 2.03 9.345 9.345 0 0 1 2.324 3.124c.572 1.226.862 2.741.862 4.503 0 1.482-.317 2.866-.94 4.112a10.204 10.204 0 0 1-2.585 3.254c-1.092.917-2.4 1.635-3.89 2.135-1.49.5-3.125.754-4.855.754" fill="#203D79"/><path fill="#231F20" d="M118.492 78.358h1.078V.766h-1.078zM3.996 54.185L2.99 51.863l-1.036 2.322h2.043zm.17.367H1.778l-.283.656c-.094.218-.14.399-.14.54 0 .191.076.33.229.419.09.052.311.094.664.119v.184H0v-.184c.242-.037.441-.135.598-.299.156-.165.348-.504.578-1.019l2.417-5.375h.095l2.437 5.525c.232.522.423.853.573.988.113.104.272.164.478.18v.184h-3.27v-.184h.135c.263 0 .447-.037.554-.108a.27.27 0 0 0 .11-.23c0-.059-.011-.12-.03-.184a4.561 4.561 0 0 0-.15-.373l-.359-.84zM11.319 51.823v3.637c0 .356.033.577.1.667.066.087.2.141.403.163v.18H9.923v-.622c-.223.266-.446.46-.668.582-.223.119-.472.18-.747.18-.263 0-.498-.08-.703-.238a1.206 1.206 0 0 1-.41-.567c-.068-.216-.103-.592-.103-1.128v-1.845c0-.351-.033-.57-.1-.657-.063-.085-.198-.14-.404-.17v-.182h1.9v3.175c0 .332.015.548.044.641a.45.45 0 0 0 .15.221c.07.048.15.073.24.073.12 0 .225-.032.322-.094.133-.087.293-.26.48-.522v-2.485c0-.351-.034-.57-.1-.657-.064-.085-.198-.14-.404-.17v-.182h1.899zM15.083 51.695l.075 1.584h-.17c-.203-.47-.413-.79-.633-.962-.216-.174-.432-.259-.647-.259a.49.49 0 0 0-.35.138.416.416 0 0 0-.144.313c0 .09.033.175.1.259.106.135.404.37.891.7.489.329.81.608.962.84.156.228.235.486.235.77 0 .258-.065.512-.194.76-.13.25-.313.44-.55.573-.234.13-.496.198-.781.198-.222 0-.52-.07-.892-.208a.743.743 0 0 0-.205-.056c-.11 0-.2.083-.275.25h-.163l-.08-1.67h.17c.149.436.353.766.613.983.262.219.51.328.742.328.16 0 .29-.048.388-.144a.476.476 0 0 0 .155-.357.613.613 0 0 0-.15-.413c-.1-.115-.322-.29-.667-.527-.508-.35-.838-.62-.987-.804a1.4 1.4 0 0 1-.33-.9c0-.358.124-.682.37-.968.25-.293.608-.438 1.077-.438.252 0 .496.06.732.184.09.05.163.073.22.073.06 0 .107-.01.144-.034.036-.026.095-.098.174-.213h.17zM17.55 50.125v1.698h1.106v.494h-1.105v2.865c0 .269.011.443.034.52a.396.396 0 0 0 .135.191c.063.048.12.07.174.07.216 0 .42-.164.613-.491l.15.108c-.27.637-.705.954-1.312.954-.294 0-.546-.081-.752-.244-.202-.164-.332-.348-.388-.551-.033-.111-.05-.418-.05-.914v-2.508h-.608v-.175a6.464 6.464 0 0 0 1.066-.93 5.62 5.62 0 0 0 .773-1.087h.165zM20.932 51.823v1.055c.308-.48.58-.8.812-.953.233-.16.456-.24.673-.24.186 0 .333.058.443.173.113.113.17.273.17.484 0 .222-.055.393-.164.515a.496.496 0 0 1-.39.184.67.67 0 0 1-.458-.17 3.226 3.226 0 0 0-.23-.189.233.233 0 0 0-.114-.029.422.422 0 0 0-.274.11 1.04 1.04 0 0 0-.309.482c-.107.321-.16.675-.16 1.063v1.068l.006.28c0 .189.011.308.034.363.04.087.099.154.175.198.08.039.213.064.399.073v.18h-2.518v-.18c.204-.016.34-.071.41-.163.073-.097.11-.347.11-.75v-2.57c0-.264-.014-.433-.04-.507a.397.397 0 0 0-.145-.203c-.063-.044-.175-.073-.335-.091v-.183h1.905zM25.59 55.422v-1.556c-.402.235-.701.486-.898.756a.914.914 0 0 0-.193.542c0 .151.053.285.164.401.083.09.199.134.349.134.166 0 .358-.093.578-.277m0 .36c-.568.503-1.078.752-1.53.752a.907.907 0 0 1-.663-.259.884.884 0 0 1-.264-.655c0-.354.153-.672.458-.954.306-.285.972-.662 2-1.132v-.468c0-.351-.02-.573-.06-.662a.513.513 0 0 0-.215-.237.648.648 0 0 0-.359-.105.93.93 0 0 0-.534.144c-.086.06-.129.13-.129.209 0 .07.047.156.14.258.125.142.188.28.19.412a.551.551 0 0 1-.185.418.658.658 0 0 1-.473.17.775.775 0 0 1-.529-.189.583.583 0 0 1-.21-.443c0-.24.095-.466.285-.681.189-.218.454-.386.792-.502.34-.115.692-.173 1.056-.173.442 0 .79.093 1.047.281.26.187.426.39.504.608.045.14.07.458.07.96v1.803c0 .212.007.346.024.402a.26.26 0 0 0 .075.12c.032.026.07.04.115.04.085 0 .174-.062.264-.185l.149.119c-.166.247-.339.425-.518.538a1.124 1.124 0 0 1-.603.163c-.266 0-.474-.06-.624-.184-.149-.126-.24-.314-.273-.567M29.64 49.732v5.773c0 .328.038.539.114.633.077.087.225.139.448.153v.178h-2.516v-.178c.206-.006.359-.067.459-.18.066-.075.099-.277.099-.606v-4.81c0-.323-.038-.531-.115-.62-.076-.093-.224-.146-.443-.159v-.184h1.954zM32.47 51.823v3.683c0 .327.038.537.114.632.076.087.226.14.449.152v.18h-2.517v-.18c.207-.006.36-.066.46-.178.065-.076.1-.278.1-.606v-2.712c0-.329-.04-.538-.116-.628-.076-.092-.224-.145-.444-.16v-.183h1.954zm-.698-2.251a.74.74 0 0 1 .55.23.74.74 0 0 1 .223.54.733.733 0 0 1-.23.543.743.743 0 0 1-.543.223.737.737 0 0 1-.542-.223.735.735 0 0 1-.225-.543c0-.211.074-.39.225-.54a.726.726 0 0 1 .542-.23zM35.752 55.422v-1.556c-.402.235-.701.486-.897.756a.916.916 0 0 0-.195.542c0 .151.055.285.165.401.083.09.2.134.349.134.166 0 .358-.093.578-.277m0 .36c-.568.503-1.078.752-1.53.752a.912.912 0 0 1-.663-.259.887.887 0 0 1-.264-.655c0-.354.153-.672.458-.954.306-.285.972-.662 2-1.132v-.468c0-.351-.02-.573-.06-.662a.513.513 0 0 0-.214-.237.648.648 0 0 0-.36-.105.93.93 0 0 0-.534.144c-.086.06-.13.13-.13.209 0 .07.048.156.14.258.127.142.19.28.19.412a.55.55 0 0 1-.184.418.66.66 0 0 1-.473.17.775.775 0 0 1-.529-.189.582.582 0 0 1-.209-.443c0-.24.095-.466.284-.681.19-.218.454-.386.792-.502.34-.115.692-.173 1.056-.173.443 0 .791.093 1.047.281.26.187.427.39.503.608.047.14.07.458.07.96v1.803c0 .212.008.346.026.402a.253.253 0 0 0 .074.12c.033.026.071.04.115.04.085 0 .175-.062.264-.185l.15.119c-.167.247-.339.425-.52.538a1.12 1.12 0 0 1-.602.163c-.266 0-.473-.06-.623-.184-.149-.126-.24-.314-.274-.567M39.78 51.823v.6c.239-.257.467-.443.687-.56.22-.119.455-.178.707-.178.303 0 .553.083.753.253.2.167.333.373.4.62.052.19.079.552.079 1.09v1.809c0 .357.031.58.094.67.067.087.203.141.409.163v.18h-2.357v-.18c.175-.022.302-.094.378-.217.053-.084.08-.288.08-.616v-2.069c0-.38-.015-.62-.044-.72a.424.424 0 0 0-.155-.228.366.366 0 0 0-.234-.085c-.286 0-.552.204-.797.611v2.49c0 .349.031.568.094.661.066.093.188.151.364.173v.18H37.88v-.18c.197-.019.336-.082.42-.188.055-.074.084-.288.085-.645v-2.625c0-.351-.034-.57-.1-.657-.064-.085-.198-.14-.405-.17v-.182h1.9zM52.09 49.578v2.376h-.185c-.224-.65-.557-1.144-1.002-1.483a2.367 2.367 0 0 0-1.461-.507c-.506 0-.926.145-1.262.428-.336.283-.574.676-.713 1.183a5.893 5.893 0 0 0-.209 1.56c0 .645.076 1.213.23 1.7.152.486.398.845.737 1.073.342.23.747.343 1.217.343.163 0 .33-.016.498-.05.174-.036.349-.088.53-.153v-1.403c0-.264-.02-.434-.056-.512a.497.497 0 0 0-.23-.213.824.824 0 0 0-.413-.094h-.174v-.183h3.284v.183c-.248.017-.423.052-.523.105a.486.486 0 0 0-.223.254c-.03.061-.045.216-.045.46v1.403a6.922 6.922 0 0 1-2.802.58c-.643 0-1.176-.087-1.602-.257a4.098 4.098 0 0 1-1.121-.686 3.252 3.252 0 0 1-.757-.96 3.325 3.325 0 0 1-.35-1.535c0-1.014.358-1.87 1.072-2.568.714-.7 1.613-1.05 2.696-1.05.337 0 .639.028.909.081.145.025.383.101.708.228.33.122.524.184.583.184.093 0 .18-.034.26-.1.079-.07.151-.2.219-.387h.185zM55.343 52.036a.58.58 0 0 0-.437.196c-.12.125-.2.377-.24.755-.037.374-.055.895-.055 1.564 0 .356.024.686.07.994.036.236.114.414.234.538.12.122.256.184.41.184a.569.569 0 0 0 .373-.125.831.831 0 0 0 .259-.473c.066-.314.098-.95.1-1.907 0-.563-.032-.95-.094-1.16-.065-.21-.158-.363-.28-.46a.53.53 0 0 0-.34-.106m-.018-.351c.404 0 .782.104 1.13.313.349.208.614.504.793.889.182.383.274.806.274 1.263 0 .658-.167 1.21-.504 1.655-.406.535-.965.805-1.679.805-.702 0-1.241-.246-1.62-.736a2.71 2.71 0 0 1-.57-1.705c0-.666.193-1.246.58-1.739.39-.497.92-.745 1.596-.745M59.72 56.61l-1.57-3.604c-.19-.434-.337-.708-.442-.824a.6.6 0 0 0-.34-.176v-.183h2.477v.183c-.156 0-.262.028-.319.085a.337.337 0 0 0-.12.26c0 .121.074.352.219.69l.768 1.744.613-1.506c.176-.43.264-.734.264-.914a.302.302 0 0 0-.115-.248c-.073-.066-.203-.103-.393-.11v-.184h1.525v.183a.629.629 0 0 0-.359.165c-.095.09-.233.353-.42.79l-1.553 3.649h-.235zM64.726 53.647c0-.532-.028-.9-.089-1.098a.882.882 0 0 0-.27-.452.405.405 0 0 0-.278-.091c-.173 0-.313.086-.423.254-.197.297-.294.7-.294 1.213v.174h1.354zm1.227.334h-2.557c.032.616.195 1.102.493 1.461.23.275.505.412.828.412.2 0 .38-.055.542-.164.163-.112.338-.312.524-.602l.17.11c-.253.512-.532.878-.837 1.092-.306.213-.66.32-1.062.32-.692 0-1.214-.267-1.57-.796-.285-.427-.428-.957-.428-1.59 0-.777.21-1.391.629-1.848.421-.46.914-.692 1.479-.692.472 0 .88.195 1.225.581.349.385.537.957.564 1.716zM68.163 51.823v1.055c.31-.48.58-.8.813-.953.232-.16.457-.24.673-.24.186 0 .333.058.443.173.113.113.17.273.17.484 0 .222-.056.393-.164.515a.497.497 0 0 1-.39.184.664.664 0 0 1-.457-.17 3.565 3.565 0 0 0-.23-.189.238.238 0 0 0-.115-.029.426.426 0 0 0-.275.11c-.136.112-.239.274-.308.482-.107.321-.16.675-.16 1.063v1.068l.006.28c0 .189.01.308.034.363a.43.43 0 0 0 .175.198c.08.039.213.064.399.073v.18H66.26v-.18c.201-.016.338-.071.407-.163.073-.097.11-.347.11-.75v-2.57c0-.264-.013-.433-.041-.507a.394.394 0 0 0-.142-.203c-.064-.044-.177-.073-.334-.091v-.183h1.902zM72.46 51.823v.6c.24-.257.468-.443.688-.56.219-.119.453-.178.707-.178.302 0 .554.083.753.253.199.167.332.373.399.62.052.19.078.552.08 1.09v1.809c0 .357.031.58.094.67.066.087.203.141.408.163v.18h-2.358v-.18c.176-.022.303-.094.38-.217.053-.084.08-.288.08-.616v-2.069c0-.38-.016-.62-.045-.72a.427.427 0 0 0-.154-.228.372.372 0 0 0-.235-.085c-.286 0-.55.204-.797.611v2.49c0 .349.031.568.095.661.066.093.186.151.363.173v.18H70.56v-.18c.196-.019.337-.082.42-.188.056-.074.085-.288.085-.645v-2.625c0-.351-.034-.57-.1-.657-.063-.085-.199-.14-.405-.17v-.182h1.9zM77.86 51.823v.613c.256-.279.492-.471.707-.583.22-.11.46-.168.719-.168.299 0 .549.069.752.208.203.14.36.351.468.635.266-.297.52-.511.764-.644.245-.133.5-.2.766-.2.322 0 .579.076.767.224.193.145.327.333.399.562.078.226.114.586.114 1.083v1.904c0 .357.033.579.096.665.067.086.202.143.408.168v.18h-2.407v-.18c.19-.016.329-.088.419-.217.06-.09.09-.296.09-.616v-1.998c0-.415-.017-.678-.05-.79a.453.453 0 0 0-.16-.248.377.377 0 0 0-.25-.085.747.747 0 0 0-.432.157 2.01 2.01 0 0 0-.444.469v2.495c0 .333.028.545.084.63.076.123.222.19.44.203v.18h-2.413v-.18a.526.526 0 0 0 .303-.092.425.425 0 0 0 .151-.21c.025-.083.039-.26.039-.531v-1.998c0-.422-.017-.684-.049-.79a.484.484 0 0 0-.17-.248.386.386 0 0 0-.25-.091.657.657 0 0 0-.363.106c-.156.101-.322.278-.498.526v2.495c0 .326.032.545.094.65.067.103.203.164.41.183v.18h-2.403v-.18c.195-.019.335-.082.42-.188.055-.074.084-.288.084-.645v-2.625c0-.351-.033-.57-.1-.657-.062-.085-.198-.14-.404-.17v-.182h1.899zM86.741 53.647c0-.532-.03-.9-.088-1.098a.9.9 0 0 0-.27-.452.407.407 0 0 0-.28-.091c-.173 0-.314.086-.424.254-.195.297-.293.7-.293 1.213v.174h1.355zm1.227.334H85.41c.03.616.193 1.102.493 1.461.23.275.505.412.829.412.197 0 .379-.055.541-.164.163-.112.337-.312.523-.602l.17.11c-.251.512-.531.878-.837 1.092-.307.213-.66.32-1.061.32-.692 0-1.215-.267-1.572-.796-.284-.427-.427-.957-.427-1.59 0-.777.21-1.391.628-1.848.423-.46.915-.692 1.48-.692.471 0 .88.195 1.227.581.348.385.536.957.563 1.716zM90.046 51.823v.6c.24-.257.468-.443.688-.56.22-.119.454-.178.706-.178.303 0 .554.083.753.253.2.167.333.373.4.62.053.19.08.552.08 1.09v1.809c0 .357.031.58.094.67.066.087.204.141.408.163v.18h-2.356v-.18c.176-.022.301-.094.379-.217.052-.084.08-.288.08-.616v-2.069c0-.38-.015-.62-.046-.72a.417.417 0 0 0-.155-.228.367.367 0 0 0-.234-.085c-.285 0-.551.204-.797.611v2.49c0 .349.032.568.095.661.066.093.188.151.364.173v.18h-2.357v-.18c.196-.019.334-.082.418-.188.056-.074.084-.288.085-.645v-2.625c0-.351-.034-.57-.1-.657-.063-.085-.198-.14-.403-.17v-.182h1.898zM95.157 50.125v1.698h1.107v.494h-1.107v2.865c0 .269.012.443.034.52a.406.406 0 0 0 .136.191.292.292 0 0 0 .174.07c.216 0 .42-.164.613-.491l.15.108c-.269.637-.707.954-1.311.954-.296 0-.547-.081-.753-.244-.203-.164-.332-.348-.388-.551-.034-.111-.05-.418-.05-.914v-2.508h-.608v-.175a6.394 6.394 0 0 0 1.066-.93 5.62 5.62 0 0 0 .773-1.087h.164zM40.067 37.71a.31.31 0 0 1-.13.128M41.233 28.613c.136 0 .243-.11.243-.246a.244.244 0 0 0-.243-.245.244.244 0 0 0-.243.245c0 .135.108.246.243.246M49.618 23.271h2.677v-4.7h-2.677v4.7zm2.677 2.233c-.047.508-.22.929-.571 1.169l-2.106 1.252v-4.413h2.677v1.992zm-5.387-2.233h2.472v-4.7h-2.472v4.7zm2.472 4.796l-.973.58h-.017a.41.41 0 0 1-.515-.005l-.967-.575v-4.555h2.472v4.555zm-3.472-4.796h.76v-1.72h-.76v1.72zm.761 4.654l-2.104-1.252c-.352-.24-.524-.66-.57-1.169v-1.992h2.674v4.413zm-2.674-7.541h.923V18.57h-.923v1.814zm1.153-1.133l.109-.112-.067-.124.142.015.086-.15.083.147.144-.012-.067.124.108.112-.138.027v.153l-.13-.098-.131.098v-.153l-.139-.027zm.655 1.894c-.007-.044-.068-.057-.094-.057-.081 0-.115.135-.184.14-.05.002-.087.007-.087-.057 0-.043.106-.08.145-.12-.57 0-.58.26-.67.26-.15 0 .125-.273.205-.353-.116-.018-.183-.161-.309-.232.06-.086.093-.049.167.012 0-.06.045-.131.179-.131.254 0 .182.247.223.247.042 0-.003-.247.169-.247.252 0 .568.649.282.649-.123 0-.024-.093-.026-.11zm-.613 1.385l.142.015.086-.15.083.148.144-.013-.067.123.108.112-.138.027v.153l-.13-.098-.131.098v-.153l-.139-.027.109-.112-.067-.123zm-1.042-1.75l.141.015.086-.15.084.147.143-.013-.067.124.108.113-.137.026v.153l-.131-.097-.131.097v-.153l-.137-.026.107-.113-.066-.124zm-.153 2.491h.923v-1.72h-.923v1.72zm2.122-2.255l.108-.113-.067-.124.142.016.085-.15.084.147.144-.013-.068.124.11.113-.139.026v.153l-.131-.097-.13.097v-.153l-.138-.026zm-.208-.632h.76V18.57h-.76v1.814zm6.632-2.05v-.004h-8.793v.005h-.002l.007 7.08c0 .683.29 1.28.69 1.463l3.382 2.016a.413.413 0 0 0 .584.03l3.436-2.046c.401-.184.691-.78.691-1.464l.007-7.08h-.002z"/><path d="M46.527 25.133c-.013-.027-.335.108-.243.099.008-.096.188-.288.268-.36-.015-.112-.159-.01-.309.067.5-.716.18-.422-.1-.37.446-.481.33-.472 0-.324.258-.204.313-.448.273-.518-.242.323-.466.272-.466.571 0 .197-.072.52-.173.63-.13.14-.03-.529-.373-.529-.11 0-.369-.008-.447.126.07 0 .175.177.175.248 0 .071.065.264-.054.264-.116 0-.253-.244-.253-.362s-.007-.09-.007-.26c0-.283-.463-.681-.651-.681 0 .197.26.244.26.497-.112 0-.268-.206-.268-.08 0 .127.165.15.165.26 0 .111-.188-.04-.188.079 0 .104.102.086.128.188-.077-.022-.146-.012-.159.027-.012.034.023.079.08.11-.027.025-.049.083-.049.25 0 .56.352.818.61.818.183 0 .155-.128.177-.19.008.096.098-.047.098.12 0 .173-.178.097-.178.247 0 .2.282-.008.282.214 0 .268-.033.262-.033.365 0 .069.294-.099.276-.13.07.027.067.234.199.228.084-.003.103-.212.17-.23-.04.01.267.2.267.104 0-.26-.107-.15-.107-.33 0-.164.361-.132.304-.217-.047-.07-.08-.028-.119-.15.007.022-.284-.415.06-.19.363.237.404-.55.385-.59M55.908 26.986c.16 0 .29-.115.29-.255 0-.141-.13-.254-.29-.254-.16 0-.288.113-.288.254 0 .14.129.255.288.255M54.74 27.678c.16 0 .288-.113.288-.254 0-.14-.128-.254-.289-.254-.16 0-.288.114-.288.254 0 .141.129.254.288.254M40.84 29.276c.16 0 .29-.113.29-.254 0-.14-.13-.255-.29-.255-.16 0-.289.115-.289.255s.13.254.29.254M41.741 29.354c.16 0 .29-.115.29-.255s-.13-.253-.29-.253c-.16 0-.29.112-.29.253 0 .14.13.255.29.255M66.763 17.262c.429.508.521 1.324.214 1.91-.169-.015-.137-.231-.169-.355-.306-.57-.551-1.293-.276-1.94.2.031.122.277.23.385M30.048 17.956c-.093.368-.093.877 0 1.215-.076.078-.061-.076-.139-.061-.597-.431-.322-1.278-.474-1.88.03-.045.107-.06.152-.03.277.185.4.446.46.756M68.082 18.002c.091.17-.078.339-.2.415-.138.031-.292-.046-.382-.17-.047-.168.045-.323.183-.4.153-.015.306.016.399.155M29.113 18.679c-.03.138-.077.277-.2.34-.092 0-.23 0-.29-.079-.093-.076-.108-.214-.063-.323.063-.107.185-.124.292-.138.107.046.214.076.26.2M68.68 18.94c.03.093.03.155 0 .247-.109.139-.26.2-.416.139-.107-.063-.136-.17-.168-.262.032-.123.153-.23.26-.278.14 0 .232.078.324.155M67.805 18.957c.123.062.03.214.016.306-.077.079-.185.2-.32.155-.079-.076-.17-.076-.2-.185 0-.154.06-.307.213-.355.122-.03.2.031.29.079M66.685 19.187c0 .17.016.385-.183.416-.185.061-.308-.093-.353-.215a.361.361 0 0 1 .231-.37c.122 0 .228.077.305.17M30.784 19.264c.046.155-.108.246-.198.323-.108.031-.247-.062-.308-.168-.108-.108.03-.201.061-.293.153-.14.383-.031.445.138M29.864 19.31c0 .123-.061.246-.169.293-.122.046-.245-.047-.307-.14-.076-.152.016-.292.139-.353.168-.061.276.092.337.2M62.974 19.373c.152.322.276.707.307 1.107-.062.293.047.678-.169.878-.214-.076-.228-.338-.368-.477-.275-.539-.03-1.17.062-1.694.122-.046.122.107.168.186M29.143 19.556c.046.186-.092.278-.199.385-.184.047-.307-.092-.384-.215a.389.389 0 0 1 .2-.37.397.397 0 0 1 .383.2M65.397 20.003c.2.447.215.987.077 1.48l-.093.075c-.213-.416-.52-.801-.629-1.246 0-.324.063-.617.184-.88.109-.076.17.017.216.11.016.168.093.369.245.461M67.33 19.726c-.015.154-.077.323-.23.37-.154.03-.306-.016-.352-.186-.047-.153.046-.292.167-.369.17-.092.338.063.415.185M29.88 20.203a.329.329 0 0 1-.231.293c-.123.092-.213-.063-.323-.108-.045-.123-.076-.23 0-.354.048-.092.154-.092.247-.124.137.079.276.14.307.293M30.554 20.127c.062.154-.108.23-.168.307-.185.061-.277-.077-.353-.184-.031-.154.06-.247.168-.34.185-.045.276.078.353.217M67.76 20.08c-.017.2-.323.4-.354.6-.169.417-.536.724-.95.863-.093.077-.216.184-.354.2-.03-.306.246-.585.415-.863a2.282 2.282 0 0 1 1.243-.8M29.573 20.728c.23.261.352.492.628.723.016.061-.031.154-.107.154-.751-.047-1.258-.817-1.626-1.355.047-.17.246-.03.353-.047.261.201.553.263.752.525M67.973 20.942c-.03.663-.352 1.34-.95 1.664-.17.062-.353.231-.52.123.322-.662.812-1.202 1.35-1.787h.12zM65.03 21.39c.046.23-.077.368-.26.446-.17.015-.276-.123-.354-.247a.323.323 0 0 1 .214-.338c.047-.047.123-.047.185-.047.092.03.138.108.216.185M28.729 21.527c.292.2.552.478.828.725-.2.138-.444.015-.674.015-.522-.185-.875-.63-1.412-.785.016-.17.215-.107.322-.155.339-.03.614.123.936.2" fill="#231F20"/><path d="M45.154 16.97c-.86-.34-1.426.554-2.301.446-.108.062-.077.169-.139.246-.044.046-.122.016-.168-.016-.045-.369-.168-.708-.214-1.062-.093-.154-.047-.369-.123-.524-.49-1.339 1.196-.323 1.532-1.108.293-.677-.566-.755-.827-1.232v-.2c-.244-.246-.505-.323-.66-.647.108-.385.155-.8.047-1.186-.016-.092-.077-.216-.214-.169-.293.4-.507.723-.783 1.108-.292-.215-.568-.492-.906-.677-.229-.031-.444-.262-.704-.17-.046.093 0 .17.046.231.014.601.322 1.078.75 1.51l.048.23c-.277.631-.2 1.355-.277 2.034-.69 1.755-1.81 3.45-3.328 4.666-.873.986-1.917 1.94-2.055 3.295-.046.215.032.478-.137.632-.507-.184-1.013-.431-1.427-.755-.705-.492-1.717-.43-2.177-1.325-.185-.354.046-.708.214-.97.521-.492.445-1.37.169-1.971-.062-.015-.076.062-.122.077-.047.91-.767 1.54-.491 2.541.061.293.214.477.291.754-.107-.03-.26-.03-.354-.076-.336-.046-.674-.185-1.026-.138-.706.323-1.671-.077-2.24.57-.091.015-.214.03-.183.169.338 0 .66.091.997.077.536.093.889-.355 1.257-.555h.092c.153-.154.414-.061.614-.092.966.107 1.717.57 2.515 1.046v.062c-.307.14-.66.231-.967.402-.352.261-.75.6-.859 1.031-.245.384.077.724.231 1.047.016.154.03.338.169.4.49-.523.03-1.17.107-1.77.123-.463.552-.678.997-.801.873-.37 1.503.338 2.207.74-.014.708.077 1.386-.076 2.078-.215.076-.49.123-.721.107-1.211.093-2.162.755-3.25 1.125-.491.169-1.074.154-1.564.338.383.109.781-.031 1.18-.046 1.503-.216 2.653-1.37 4.278-1.17l.03.046a3.605 3.605 0 0 1-.72 1.001c-.046-.169-.06-.308-.215-.4-.123-.062-.26 0-.352.124-.046.076-.046.169 0 .23.076.139.2.17.338.215-.032.14-.2.201-.292.323-.43.725-1.303.432-1.81.941-.076.108-.353.17-.23.338a2.298 2.298 0 0 0 1.58-.401c.568-.63 1.166-1.232 1.733-1.832.091.494-.046 1.001-.337 1.402-.139-.077-.246-.186-.414-.231-.154.03-.262.185-.276.308.06.107.122.23.229.308-.52.37-1.18.4-1.778.57a30.36 30.36 0 0 1-3.343.246c-.537-.032-1.15.154-1.656 0-.584.108-1.212-.077-1.688.247-.061.076.015.154.015.23.706.463 1.673.093 2.47.231h6.042c.444-.015.889-.031 1.242-.231.782-.447 1.211-1.248 1.61-2.033.153-.277.261-.6.323-.923a1.332 1.332 0 0 1 1.148-.94c.077.8-.074 1.602-.26 2.341-.092.494-.414.97-.214 1.493.046.247.307.247.505.278 1.856-.03 3.712-.108 5.675.031.352.062.66.17 1.043.155.031-.048.138-.063.092-.155-.047-.17-.17-.385-.37-.432-.03-.091-.167-.061-.213-.122-.98-.556-2.161-.262-3.313-.247-.598.061-1.195.169-1.702-.169-.23-.278-.061-1.156-.061-1.156 0-.348.844-2.772.95-2.972.031-.231.123-.447.094-.708.121-.308.091-.71.091-1.047.061-.494.306-.955.475-1.432.092-.231.17-.478.26-.708.093-.293.124-.572.308-.802.5.316.99.308 1.23.873l.212 1.284c0 .076.06.23.168.138.398-.261.277-.847.277-1.247.092-.478-.246-.71-.384-1.124-.107-.078-.284-.445-.284-.445-.062-.34-.806-.573-.636-.988.091-.355.184-.678.52-.878.051.036.072.072.077.11l.184-.129.02-1.288c.496-.001 1.238.062 1.744.062.139.046.245.154.399.17l.123-.17 1.242-.242c-.528.058-.849-.545-1.35-.545" fill="#231F20"/><path d="M46.503 17.515a.683.683 0 0 0 .114-.021l-.114.021z" fill="#FEFEFE"/><path d="M33.146 21.805c.015.186-.093.292-.23.354-.123-.047-.216-.062-.292-.184-.061-.17.093-.293.215-.356.123.032.276.046.307.186M32.149 21.805a.336.336 0 0 1 .061.354c-.107.093-.276.17-.367.046-.093-.093-.186-.2-.108-.323.108-.108.292-.2.414-.077" fill="#231F20"/><path d="M53.498 21.974a.32.32 0 0 0 .013.022" fill="#FEFEFE"/><path d="M65.182 22.236c.063.17-.077.292-.198.354-.155-.045-.354-.077-.354-.276.016-.123.122-.202.23-.232.138-.046.262.063.322.154M65.996 22.205c.047.078.153.202.03.278-.062.045-.108.062-.152.123-.17.03-.322-.03-.37-.185-.03-.17.108-.247.231-.323.107-.031.183.046.26.107M28.3 22.39c-.061.186-.215.262-.414.2a.611.611 0 0 1-.122-.2c.014-.107.045-.216.168-.261.184.016.322.092.368.261M33.468 22.652c-.016.123-.154.23-.26.292-.155.016-.262-.106-.338-.215 0-.123.061-.277.183-.308.17-.061.354.062.415.23M32.563 22.545c.047.045.091.168.047.245-.093.078-.231.216-.383.124-.094-.077-.2-.138-.17-.293.061-.062.137-.154.23-.184.123-.03.184.046.276.108M68.341 22.728c0 .124-.121.247-.198.294-.123.046-.262.015-.338-.077-.092-.031-.06-.155-.06-.231a.533.533 0 0 1 .29-.2.561.561 0 0 1 .306.214M69.323 22.868c-.045.138-.154.262-.29.276-.093-.014-.262-.045-.23-.183 0-.11.06-.217.137-.247.153-.078.338 0 .383.154M30.048 23.084c.03.184-.03.308-.184.369-.107.062-.215-.016-.29-.077-.078-.077-.139-.2-.078-.308.03-.138.169-.107.261-.169.138.015.215.076.29.185M30.799 23.222c.046.122-.092.17-.122.262-.076.046-.184.091-.276.03-.107-.092-.23-.23-.124-.37.124-.23.445-.107.522.078M67.437 23.144c.016.154-.122.262-.213.356a.268.268 0 0 1-.309-.185c-.014-.123.062-.216.17-.293.139-.016.275 0 .352.122M68.694 23.392c-.03.138-.014.292-.168.385-.124.03-.276.014-.369-.063-.091-.076-.106-.214-.06-.322.076-.124.215-.217.367-.186.108.062.139.138.23.186M29.465 23.715c.061.122-.077.154-.122.216-.108.061-.215.015-.307-.03-.107-.064-.061-.217-.046-.295.138-.262.414-.076.475.109M67.728 24.007c.062.016.032.108.016.138-.368.186-.92.231-1.242-.061-.185-.154-.415-.215-.615-.338.077-.2.353-.186.554-.231.443.06.796.478 1.287.492M30.201 23.869c.032.124-.06.17-.091.262-.062.092-.184.062-.261.03-.139-.092-.2-.26-.109-.385.17-.17.37-.076.461.093M31.55 23.96c.062.14-.03.263-.152.34-.108.062-.2-.031-.292-.046-.077-.109-.214-.231-.077-.354.139-.231.414-.11.522.06M49.282 24.612c-.029.308-.54-.043-.467.365.073.294.13.644.305.863.145.207.074.528.06.777-.133.219-.352.38-.584.498-.438-.044-1.078.219-1.283-.324-.087-.233-.247-.467-.247-.73.045-.03.102-.03.146-.073 0-.102-.117-.16-.101-.263.494-.09-.205-.527.217-.557.35.367.918.249 1.225.643.072.06.13.147.219.191-.06-.366-.234-.73-.293-1.126a.504.504 0 0 1 .176-.511c.262-.206.48.086.627.247M32.9 24.516c.047.153-.076.245-.168.323-.137.062-.215-.092-.277-.17-.046-.153.062-.231.154-.307.108 0 .23.045.291.154M42.362 24.669c.184.601.123 1.217-.184 1.726-.015.122.031.323-.138.306-.414-.568-.108-1.37.061-1.97.031-.155.215-.215.261-.062M55.491 24.963c.214.431.23 1 .03 1.432l-.122.122c-.169-.353-.307-.707-.352-1.092.076-.279.169-.524.183-.816.216-.047.199.23.261.354M34.097 25.132c-.093.184-.353.23-.523.354-.366.276-.903.338-1.363.262.398-.554 1.011-.878 1.747-.725.031.062.108.03.139.109M27.793 25.686c.568.4.721.954 1.059 1.51.046.06.2.076.138.2-.123.091-.245-.093-.413-.062-.584-.261-.952-.909-.936-1.586 0-.062.092-.062.152-.062M54.892 26.164c.017.153-.015.307-.137.353a.28.28 0 0 1-.353-.184c-.046-.107.046-.169.077-.247.123-.124.336-.062.413.078" fill="#231F20"/><path d="M61.365 26.98c0-.293.077-.571.107-.847a.57.57 0 0 0 .061-.323c.368-.494 1.12-.34 1.703-.293.23.122.52.107.766.169.106-.078.262-.092.383-.078.491-.261.169-.83.2-1.278l-.185-.461a1.79 1.79 0 0 1-.122-.309c-.092-.107-.153-.306-.245-.415-.26-.678-.767-1.063-1.197-1.602-.782-1.017-2.008-1.586-3.234-1.987-1.213-.415-2.44.123-3.529.508-.337-.092-.505-.354-.597-.645a3.051 3.051 0 0 1 .29-1.633c.048-.385.307-.678.415-1.033.275-.862.567-1.708.629-2.648.032-.57-.4-.971-.828-1.217-.291-.076-.63-.062-.844.17-.199.415-.629.693-.996.893-.031.261.29.093.398.185.337.061.722-.047.997.17.031.615-.322 1.124-.645 1.585-.52.77-1.072 1.556-1.394 2.402l-.063-.06.076 3.763c.488.812 1.099 1.736 2.01 2.042.491.4 1.105.878 1.764.523.353-.106.383.386.553.586.184.57-.23.97-.261 1.494l-.4.846c-.46.894-.874 1.849-1.579 2.604-.23 0-.368.245-.598.261-.123.169-.368.046-.52.107-.477.201-1.152.079-1.473.525.03.045.076.06.124.077.934.016 1.977.076 2.974.03.121-.046.229-.154.243-.293-.136-.26.047-.492.17-.691.077-.37.324-.602.43-.956.323-.632.69-1.246 1.042-1.88l.475-.77c.109-.26.293-.584.477-.862.121-.122.184-.262.276-.415.014-.154-.062-.216-.155-.323.108-.109.275-.078.415-.109.384.231.782.602.859 1.018l.138.4.062.184-.032.507.062.478c.077.74-.062 1.494-.138 2.234-.261.893-1.289.801-2.025 1-.183.124-.535.062-.535.371.889.184 1.932.077 2.882.06.154-.06.183-.2.26-.338.03-.2.23-.37.168-.585-.167-.216-.014-.554-.06-.847a.453.453 0 0 0 0-.293c.123-.446.092-.985.184-1.416l.062-.585zM68.909 26.379c-.49.694-1.012 1.478-1.87 1.725-.062 0-.124.03-.155-.046.522-.555.799-1.418 1.611-1.617.122-.062.292-.125.414-.062M27.042 27.134c-.077.062-.015.2-.153.215-.122.061-.26-.015-.321-.138-.063-.155.075-.31.199-.34.122.062.245.109.275.263M31.459 27.349c.046.138-.108.138-.184.169-.644.232-1.303.016-1.763-.445 0-.062 0-.124.061-.14.628.154 1.365.03 1.886.416M27.886 27.149c.03.062.047.169.03.23-.092.139-.23.17-.382.139a.503.503 0 0 1-.201-.2c.017-.155.138-.246.261-.293a.468.468 0 0 1 .292.124M42.255 27.227c.03.138-.092.23-.184.29a.306.306 0 0 1-.322-.121c-.046-.108 0-.262.107-.294.138-.03.353-.015.399.125M69.492 27.288c.047.154-.092.23-.2.322-.09.047-.2 0-.292-.045-.014-.078-.107-.138-.074-.247.06-.139.198-.2.352-.184.075.061.137.077.214.154M70.505 27.227c.09.138.015.245-.063.353a.209.209 0 0 1-.275.092c-.093-.092-.215-.138-.23-.276 0-.124.137-.217.23-.262.153-.061.215.093.338.093M26.398 27.672c.016.108-.076.169-.107.262-.076.03-.153.093-.246.062a.45.45 0 0 1-.23-.246.398.398 0 0 1 .277-.309c.123.031.26.093.306.231" fill="#231F20"/><path d="M58.696 27.672c.031.062.015.14.015.2-.09.124-.214.232-.368.155-.092-.093-.2-.186-.153-.323.123-.17.384-.232.506-.032M28.867 27.904c-.03.108-.077.215-.214.23-.138.016-.185-.108-.26-.17 0-.138-.017-.276.122-.353.183-.063.352.092.352.293M27.395 27.934c.046.154-.062.261-.154.34-.183.061-.337-.079-.413-.217.014-.138.123-.307.276-.354.137 0 .214.154.291.23M59.708 27.904c.03.154-.016.308-.167.37-.184.061-.339-.094-.415-.216.076-.124.091-.293.276-.324.139 0 .23.061.306.17M28.116 27.965c.046.109-.046.154-.078.23-.076 0-.122.093-.214.062-.06-.076-.183-.107-.2-.214-.014-.155.092-.231.2-.293.153-.016.246.091.292.215M68.648 28.088c-.046.124-.137.186-.26.247-.124.03-.2-.078-.292-.123-.076-.062-.045-.2-.014-.278.153-.262.566-.138.566.154M69.814 28.15c-.047.169-.214.245-.368.262-.138-.06-.291-.17-.185-.355.062-.061.092-.123.185-.138.185-.061.321.077.368.231M62.528 28.257c.08.2-.105.262-.227.354a.682.682 0 0 1-.292-.123.352.352 0 0 1 .214-.4c.138 0 .215.062.305.17M58.313 28.443c.076.03.046.138.03.184-.092.063-.214.215-.353.122-.107-.06-.183-.152-.152-.292.075-.169.397-.183.475-.014M59.171 28.55c.016.123-.015.185-.121.247-.109.107-.23-.015-.34-.047-.03-.06-.06-.153-.014-.231a.346.346 0 0 1 .2-.124c.107.033.23.033.275.155M33.146 28.566c.091.093-.016.2-.031.292-.077.093-.245.17-.383.077-.154-.062-.138-.262-.108-.385.093-.031.093-.138.215-.138.138.016.214.076.307.154M64.17 28.628c.031.154-.122.214-.23.245-.183.062-.276-.076-.352-.2 0-.092.092-.154.122-.23.216-.092.354.061.46.185M63.343 28.628c.06.154-.107.23-.17.307a.305.305 0 0 1-.337-.062c-.077-.045-.077-.138-.077-.23.091-.077.139-.17.247-.2.138 0 .275.076.337.185M70.26 28.811c.029.217-.245.11-.353.17-.646.385-1.474.092-2.087-.138.047-.2.276-.123.4-.2.658-.417 1.333.092 1.992.123l.048.045zM28.284 28.628l-.06.107c-.568.338-1.305.57-1.978.354l-.062-.093c.567-.415 1.318-.523 2.055-.415l.045.047zM65.735 28.735c0 .123-.062.23-.154.292-.153.046-.352 0-.4-.169-.044-.123.079-.247.2-.292.11 0 .292.015.354.169M31.029 28.797c-.06.123-.03.247-.184.307-.152.062-.337-.076-.382-.2-.046-.17.076-.215.153-.293.183-.092.322.048.413.186M29.941 28.873c.046.11-.047.17-.078.247-.076.093-.214.077-.306.045-.107-.092-.214-.199-.169-.369.092-.075.139-.123.246-.168.138.03.276.093.307.245M66.808 29.227a.33.33 0 0 1-.245.278c-.122.015-.23-.077-.291-.154a.24.24 0 0 1 .061-.292c.03-.046.138-.046.2-.077a.326.326 0 0 1 .275.245M28.806 29.059c.046.123-.06.168-.078.261-.045.263-.213.432-.336.664-.292.352-.706.352-1.12.46l-.061-.123c.445-.57.92-1.015 1.549-1.294l.046.032zM66.042 29.398c.03.186-.123.215-.231.291a.35.35 0 0 1-.306-.184c-.047-.17.107-.23.2-.308.152-.032.29.077.337.2M30.57 29.398c-.016.03.015.06.046.077-.015.168-.138.214-.23.292a.416.416 0 0 1-.338-.154c-.061-.138 0-.308.153-.355.138-.014.323 0 .368.14M68.863 29.86c.153-.016.184-.2.352-.231.155-.03.293.06.369.168.06.186-.076.277-.199.355-.107.077-.338-.092-.323.107.107.077.2.186.216.31-.032.06-.139.045-.185.014-.444-.185-.92-.493-1.104-.954-.061-.14-.353-.247-.184-.37.444-.031.812.325 1.058.6M70.336 29.382c.076.076.046.216-.017.292-.076.155-.304.093-.444.078-.077-.078-.153-.154-.122-.277a.474.474 0 0 1 .23-.2c.138-.031.245.03.353.107M64.77 30.214c.137.169.274.43.336.616-.03.045-.108.03-.138.03-.521-.292-1.196-.615-1.397-1.231-.044-.062-.168-.14-.152-.247.4-.077.782.216 1.058.43.109.155.23.233.293.402M29.71 29.629c.062.138-.061.247-.137.307-.169.031-.26-.031-.353-.124-.107-.169.092-.307.216-.369.121-.016.198.108.275.186M66.685 29.983c.016.091-.106.153-.153.215-.122.016-.245.061-.353-.046-.03-.078-.107-.2-.015-.276.17-.216.415-.047.521.107M70.505 30.198c.045.185-.093.308-.216.385-.153.047-.274-.062-.37-.138-.074-.093-.011-.185 0-.293.11-.092.248-.169.4-.107.063.045.123.076.186.153M59.893 32.324c0 .184-.338.138-.478.276-.473.247-1.041.247-1.608.232v-.094c.552-.462 1.35-.63 2.086-.414M37.516 32.985c-.016.138-.092.216-.23.261a.298.298 0 0 1-.26-.152c-.062-.186.091-.262.199-.34.138.016.26.123.291.23M59.632 33.155c-.03.14-.078.292-.23.355-.139.03-.231-.047-.339-.108-.077-.063-.03-.17-.045-.247a.33.33 0 0 1 .614 0M62.683 33.217c-.382.246-.813.54-1.318.54l-.828-.018-.078-.06c.506-.618 1.428-.618 2.224-.556v.094zM33.314 33.586c0 .138-.06.246-.2.293-.152.03-.26-.031-.322-.14-.06-.138 0-.276.124-.353.168-.107.337.077.398.2M34.081 33.74c.046.077-.03.124-.062.2-.091.046-.213.077-.291 0-.107-.061-.138-.169-.09-.261.045-.092.137-.078.183-.139.107.047.215.092.26.2M28.207 35.296c-.153.185-.398-.048-.566-.14-.537-.307-.522-.907-1.059-1.261.062-.185.2.014.307-.016.091.062.215.123.321.17.523.291.645.784.997 1.247" fill="#231F20"/><path d="M48.527 35.004c-.062.183-.184.339-.169.539l-.061.03c.046-.23-.184-.37-.123-.617-.123-.183-.123-.416-.23-.616-.138-.247.122-.354.23-.523.215.093.291.292.445.476.092.263-.108.464-.092.71m24.385-5.683c-.245-.447-.66-.63-1.15-.63-.4.03-.69.292-.86.63a.78.78 0 0 0 .292.847c.107.047.246.03.306-.077.077-.2-.137-.2-.168-.354-.062-.216.015-.4.168-.54.154-.153.415-.075.6-.075.183.122.367.23.46.446.09.262.09.555 0 .816-.17.385-.554.694-.951.77-1.273.186-15.244.124-15.244.124-1.64.152-3.51-.309-4.923.554-.642.307-.965 1.016-1.135 1.646-.413.37-.86.802-1.197 1.217l-.046-.046c.076-.37.245-.693.322-1.062.23-.307.23-.724.4-1.062.584-.94 1.134-1.894 2.041-2.557.382-.509 1.057-.416 1.64-.416.628.292 1.365.385 2.131.308a.144.144 0 0 0 .046-.107c-.215-.201-.567-.277-.812-.477-.614-.293-1.196.09-1.84.045-.03-.03-.062-.045-.048-.093.583-.43 1.243-.74 1.903-1.015.537-.292 1.103-.447 1.672-.664.23 0 .445-.199.658-.061l.813-.215c.032.016.064.062.124.046.689-.23 1.564-.015 2.346-.03l.107.092.736.185c.276.03.399.355.69.37.153-.217-.169-.308-.246-.448.339-.077.722.016 1.027.154l-.153.171c-.093.169.046.292.185.352.107.032.184-.045.26-.076.2-.138-.015-.276.046-.4 1.135.2 2.225.476 3.268.923.29.093.566.31.888.293-.322-.293-.766-.447-1.166-.615-.26-.155-.628-.17-.828-.385.046-.077.154-.047.2-.108.522-.062.967-.447 1.334-.863.032-.092.199-.062.185-.184-.14-.154-.369.045-.552.03-.644.123-.92.878-1.564 1.017-.783-.186-1.581-.369-2.363-.569-.383-.064-.797-.093-1.15-.247l-.859-.078h-1.564c-.014-.03-.062-.045-.046-.091.553-.14 1.028-.464 1.58-.602l4.11-1.878c.43-.385.812-.816 1.166-1.263a.29.29 0 0 0-.17-.293c-.107-.046-.229-.03-.307.063-.184.138 0 .306 0 .477-.184.246-.474.461-.705.6-.062-.015-4.232 1.895-4.232 1.895-.613.261-1.227.554-1.871.692l-.889.138c-.061.185-.216.293-.384.355-.246.046-.445.2-.706.2-1.993.77-4.063 1.587-5.642 3.157.092-.185.138-.416.152-.647-.03-.23-.014-.492-.168-.678-.035-.084-.149-.334-.112-.42l-.225.142c-.138.34-.26.956-.122 1.31.045.277.274.602.061.847-.737.894-1.152 1.972-1.643 2.99-.184-.032-.277-.203-.353-.371.522-.663.936-1.402 1.09-2.248.107-.078.03-.278.137-.37-.03-.246.138-.493.015-.693.099-.337-.448-.647-.098-.862l-.29.138c-.66.862.343 2.156-.41 2.988v.06c-.214.278-.322.556-.612.74-.368-.155-.507-.57-.722-.878-.337-.323-.337-.985-.137-1.432.137-.447-.092-.832-.14-1.232l-.152-.092c-.368.478-.506 1.232-.215 1.801.153.277.169.662.399.893.138.447.414.74.66 1.14.061.153-.092.185-.169.262-.168-.109-.139-.353-.291-.461-.506-1.079-1.166-1.94-1.963-2.82-.031-.138-.169-.261-.093-.414.292-.278.353-.818.2-1.172-.03-.076-.122-.169-.107-.245l-.231-.185c.031.539-.32 1.015-.168 1.586v.03a29.125 29.125 0 0 0-5.105-3.075l-.142.391c.45.112 1.643.837 1.643.837.536.2 1.027.523 1.533.815 2.087 1.156 3.467 3.066 4.401 5.19.016.17.17.355.062.525-.322-.492-.782-.77-1.166-1.172-.107-.723-.536-1.416-1.164-1.708-.231-.34-.722-.37-1.106-.478l-5.582-.03c-4.538-.063-8.678.137-13.187.06-.628-.06-1.396-.277-1.58-.938-.122-.232-.122-.633 0-.847.17-.293.475-.386.782-.416.245.03.415.262.522.43 0 .2-.169.386-.245.555.015.062.076.185.183.138.2-.076.353-.291.4-.493.015-.107.06-.26-.047-.337-.092-.324-.43-.555-.72-.633-.384-.03-.783.078-1.043.354-.368.31-.353.863-.246 1.294.246.678.966 1.14 1.656 1.232l14.922.063c1.456.077 3.098-.17 4.57.122.537.17 1.104.57 1.242 1.17-.016.031-.062.015-.107.015-1.212-.785-2.807-1.075-4.356-.892-.614-.03-1.165.2-1.718.354-.291.062-.567-.077-.751-.247-.552-.492-1.518-.462-2.223-.276 0 .045-.016.092.015.107.751-.062 1.196.585 1.87.663.154.03.277-.14.414-.016-.705.34-1.38.738-2.13.956-.23-.047-.354-.263-.538-.385-.291-.325-.827-.186-1.227-.217-.138.031-.26-.062-.352 0 .122.246.399.384.66.509.382.169.828-.016 1.18.216-.092.108-.214.138-.321.214-.722.279-1.32.925-2.117.878-.843.093-1.702-.155-2.27-.737-.245-.602-.873-.925-1.549-.895-.046.032-.107.032-.091.108.337.2.597.6.934.83.216.263.63 0 .829.295.291.198.66.368.997.43.245.109.521.154.797.216l-.107.062c-1.396.461-3.006.508-4.57.447-.46-.016-.905-.154-1.365-.14.077.092.23.169.369.216a.946.946 0 0 1-.415.124c-.184.045-.399.061-.583.153-.246-.015-.46.077-.66.154-.26.278-.567.57-.872.709 0 .06-.017.153.061.153.29-.123.659-.03.95-.153.505-.046.797-.6 1.196-.833.429-.338 1.043-.26 1.564-.183.307.076-.03.198.062.4.123.107.23.232.399.185.03-.031.061-.062.107-.078.091-.123.077-.262.014-.385.216-.138.507.016.737-.077.583-.014 1.165-.138 1.733-.154.092-.015.2-.107.291-.015-.045.124-.2.139-.138.307.03.14.184.2.307.233.153-.062.291-.171.23-.37-.03-.11-.153-.123-.23-.17.322-.156.69-.2 1.013-.354a2.85 2.85 0 0 0 .644-.216c.198-.015.367-.2.551-.122-.077.26-.184.507-.322.74-.245.815-.429 1.893 0 2.678.046.014.061-.016.093-.03-.322-.817-.139-1.757.137-2.527.215-1.308 1.564-1.695 2.53-2.187l.046.063c-.26.676-.643 1.323-.582 2.14.03.137-.061.277 0 .37.26-.139.43-.447.567-.71.107-.693-.291-1.555.414-2.063 1.258-.493 2.439-1.14 3.896-1.154.046.045.153-.031.168.06-.307.34-.752.663-.89 1.08-.49.677-.475 1.831-.26 2.663.138.478-.275.74-.475 1.108-.096.131-.123.356-.21.506l.302.034c.26-.276.505-.614.521-1.018a.42.42 0 0 0 .291.31c.108-.17-.091-.294-.107-.462.246-.138.353.168.552.23.322.078.598.217.935.217l.109-.108c-.338-.523-1.013-.617-1.596-.646-.307-.51-.307-1.141-.276-1.757.06-.324.122-.661.307-.954.076-.217.29-.416.43-.587.275-.26.629-.445.965-.523h.047c0 .03.014.047.014.047-.414.323-.46.769-.704 1.17-.262.385-.384.909-.139 1.34.092.2.046.506.26.647.2-.277.216-.632.322-.94-.045-.507-.352-.985-.061-1.477.154-.386.475-.54.828-.678.844-.079 1.58.352 2.316.678.154.106.414.2.445.414-.016.416-.245.834-.568 1.031-.413.248-1.012.279-1.396-.014-.229-.23-.321-.63-.245-.939.17-.185.4-.338.675-.248.154.079.292.233.491.14.076-.046.107-.17.062-.246-.169-.093-.23-.324-.46-.355-.293-.047-.646-.031-.844.17a1.085 1.085 0 0 0-.353 1.077c.108.492.476.848.95.986.707.17 1.443-.047 1.887-.646.183-.2.23-.417.337-.664.736.447 1.288 1.233 1.58 2.033 0 .262.077.54.016.77l.536.046c-.046-.121 0-.26.047-.367.198-1.018.828-1.864 1.58-2.527.261-.153.2.202.261.309.231.584.768 1 1.333 1.17.645.107 1.259-.046 1.658-.54.2-.369.445-.91.107-1.294a1.059 1.059 0 0 0-.842-.4c-.4 0-.646.277-.845.57 0 .123-.015.262.092.324.061 0 .184.015.231-.078.03-.23.23-.337.414-.46.168-.095.352 0 .49.09.168.14.2.37.215.601-.031.295-.23.601-.506.724-.445.232-1.09.123-1.473-.139-.183-.2-.29-.43-.43-.675-.028-.247-.121-.464 0-.71.676-.401 1.38-.693 2.194-.77.322.062.598.277.813.509.705.724-.153 1.755.337 2.555.184-.03.184-.277.26-.43.232-.555-.06-1.154-.198-1.694-.185-.34-.291-.632-.585-.91.078-.03.11-.03.186-.03.322.215.674.462.935.8.445.723.676 1.586.598 2.526-.123.463-.613.68-.996.846-.154.125-.338.309-.413.494.183.108.444 0 .628-.078.29-.107.46-.478.658-.645.03.015.017.062.03.091.017.17-.076.402.077.447.077-.215.094-.523.14-.785.198.216.228.493.29.77.14.276.368.647.737.693.091-.138-.016-.276-.046-.4-.046-.385-.367-.587-.584-.863-.537-.739-.29-1.893-.705-2.726-.153-.447-.476-.77-.828-1.14l.061-.062c.751-.015 1.38.232 2.07.37.843.417 2.071.324 2.47 1.418.169.616.445 1.185.873 1.662l.047-.03a.632.632 0 0 0 0-.57c-.091-.77-.767-.953-1.119-1.602l.045-.062c.368.11.751.2 1.12.355 1.227.34 2.086 1.54 2.239 2.788 0 .985-.185 1.801-.568 2.634-.045.123-.26.261-.123.368.17-.123.2-.323.292-.461.506-.847.765-2.017.506-3.097-.015-.199-.245-.354-.138-.553.076.094.17.107.26.138.093-.062.23-.062.292-.169.016-.093.077-.2 0-.278-.092-.139-.293-.139-.443-.106-.078.091-.171.214-.186.336-.153-.26-.307-.6-.552-.815l.03-.046c.69.231 1.318.57 2.025.754a.993.993 0 0 0 .537.171c.599.23 1.258.322 1.886.478.461-.048.844.169 1.304.06v-.03l-.016.015c-.168-.216-.535-.016-.736-.169a11.678 11.678 0 0 1-3.02-.754c.015-.047.076-.032.122-.032.154-.076.261-.215.246-.384a.414.414 0 0 0-.353-.171c-.092.048-.214.155-.231.262.017.125.123.263.23.292-.03.033-.09.017-.137.017-.476-.217-.936-.416-1.396-.632-.169-.031-.307-.17-.476-.2a16.11 16.11 0 0 0-1.057-.478c-.982-.507-2.071-.785-3.113-1.155-.23-.061-.445-.122-.661-.184-.383-.108-.765-.2-1.15-.309-1.302-.322-3.05-.353-4.186.354-.183-.06-.291.232-.383.047.322-.847 1.259-1.124 2.1-1.154 6.15-.063 11.917-.108 17.974-.201.706 0 1.396-.247 1.764-.877.26-.37.306-1.002.107-1.418" fill="#231F20"/><path d="M65.168 34.033c0 .045.092.06.06.138-.535.476-1.288.615-2.055.647-.061.014-.122.062-.199.046-.046-.032-.061-.078-.03-.108.552-.6 1.396-.908 2.224-.723M62.699 34.278c.06.217-.078.34-.246.416-.168-.014-.26-.123-.338-.246-.045-.122.061-.184.108-.26.123-.126.414-.126.476.09M33.545 34.31c.03.107.015.247-.077.324-.061.077-.199.091-.276.077-.108-.016-.17-.14-.2-.233 0-.138.077-.214.2-.29.122 0 .26-.017.353.122M30.799 35.31v.108a1.19 1.19 0 0 1-.996-.23c-.216-.309-.46-.617-.813-.772 0-.045-.093-.106 0-.138.767 0 1.227.617 1.809 1.033M67.5 34.293c-.354.525-.66 1.172-1.29 1.402-.108 0-.199.155-.292.048.246-.587.767-1.217 1.366-1.465.061 0 .153-.014.216.015M34.434 34.478c.015.17-.108.202-.215.294-.122.014-.183-.077-.261-.17-.06-.154.078-.215.154-.292.122-.032.26.061.322.168M69.431 34.571c-.138.201-.078.493-.215.709-.307.354-.568.754-1.059.831-.075-.154.107-.306.184-.447.215-.46.522-.984 1.012-1.185l.078.092zM26.045 34.71c.047.108.093.215 0 .339a.36.36 0 0 1-.352.061.284.284 0 0 1-.122-.368c.091-.14.367-.216.474-.031M25.172 34.895c.015.076.06.14.045.216-.045.076-.122.169-.214.185-.168.03-.276-.062-.353-.201-.015-.138.03-.263.153-.322.139-.063.292.013.369.122M26.98 34.987c.032.124.062.34-.122.37-.214.094-.337-.061-.46-.185 0-.138.076-.247.183-.308.155-.015.293 0 .4.123M29.496 35.187c-.016.109.016.263-.108.294-.075.076-.214.046-.29.03-.032-.093-.2-.168-.108-.276a.576.576 0 0 1 .215-.172c.091.047.23 0 .291.124M70.902 35.296c-.045.107-.107.247-.23.247-.137-.016-.275-.032-.352-.17-.06-.17.077-.263.2-.31.153 0 .352.063.382.233M68.096 35.372c.016.124-.123.217-.184.262-.214.093-.398-.061-.475-.231a.393.393 0 0 1 .26-.276c.2-.016.308.091.4.245M69.998 35.343a.316.316 0 0 1-.138.26c-.122.046-.276.031-.368-.06-.14-.125-.031-.232.062-.325.138-.076.398-.062.444.125M25.647 35.603c.03.17-.03.324-.184.385-.138 0-.291-.077-.338-.215-.015-.138.03-.277.154-.323.154-.047.276.046.368.153M67.33 35.772c.046.17-.046.323-.215.401-.122.03-.2-.032-.29-.108-.062-.076-.14-.246-.017-.323.123-.231.43-.14.522.03M33.897 35.943c.06.169-.122.198-.17.292-.06.03-.182.046-.229-.016-.076-.092-.168-.185-.123-.324.077-.061.108-.122.2-.152.169-.047.231.107.322.2M70.626 36.052c.031.106-.06.15-.077.23-.092.077-.244.091-.353.06-.136-.077-.136-.2-.136-.338.092-.061.106-.138.214-.17.138 0 .307.061.352.218M69.676 36.096c.062.185-.107.277-.23.325-.06.014-.153-.033-.169.06.399.201.643.523.951.816v.123c-.552-.014-1.12-.152-1.519-.585-.107-.077-.29-.077-.414-.183.2-.202.568-.125.845-.14.198-.215-.231-.37.029-.554.092-.015.154-.108.276-.079.109.048.17.125.23.217M63.403 36.112c.032.076-.06.17-.076.247a.312.312 0 0 1-.337.062c-.077-.11-.2-.202-.153-.356.123-.231.521-.186.566.047M29.113 36.651c-.047.138-.109.23-.261.246-.123-.016-.23-.062-.276-.184-.016-.11.061-.17.077-.247.168-.14.475-.046.46.185M30.355 36.45c0 .216-.23.34-.307.554-.23.509-.644.97-1.227 1.017-.06-.138.2-.309.262-.447.244-.523.734-.799 1.18-1.124h.092zM63.037 36.666c.014.17-.14.293-.263.354-.137.047-.246-.061-.322-.123-.121-.122-.044-.246.017-.37.184-.184.444-.03.568.139M63.987 36.775a.378.378 0 0 1-.276.337c-.03-.045-.107-.014-.154-.03-.108-.062-.198-.154-.198-.278.076-.077.107-.2.213-.215.139-.014.368 0 .415.186M32.732 36.758c.015.17-.108.262-.23.324-.138.016-.23-.078-.292-.186-.03-.138.108-.23.184-.306.184-.062.23.076.338.168M33.79 36.82a.367.367 0 0 1-.291.262c-.108-.03-.23-.062-.276-.185-.016-.155.107-.231.213-.308.154 0 .324.062.354.231M67.284 37.898c.077.061.216.138.183.247-.244.107-.444-.17-.674-.216-.368-.37-.644-.77-.797-1.232.138-.138.291.03.414.078.353.292.69.677.874 1.123M67.852 36.82c.045.108.03.231-.032.338-.092.155-.291.125-.429.093-.076-.093-.214-.214-.123-.354.047-.122.184-.155.292-.2.107-.015.184.078.292.123M35.2 37.22c.016.124.047.309-.107.385-.137.03-.322-.014-.367-.185-.077-.184.09-.214.184-.309.122-.029.199.032.29.11M63.94 38.221c.215.308.368.693.4 1.094-.047.109.076.215-.016.293h-.06c-.692-.492-.845-1.187-1.105-1.88-.062-.03-.077-.092-.062-.153.154-.138.261.138.415.185l.429.461zM37.195 37.698c-.016.015 0 .03.014.03-.613.432-1.472.693-2.177.277-.016-.045.016-.122.077-.138.445-.138.873-.355 1.35-.292l.736.123zM33.697 37.776c-.52.321-.997.954-1.64 1.108-.123.046-.2.215-.353.124.277-.833 1.18-1.28 1.993-1.356v.124zM63.037 38.468c.045.124 0 .293-.124.322-.077.078-.23.078-.292 0-.138-.06-.138-.198-.138-.307.045-.107.154-.124.23-.17.138.032.246.032.324.155M61.763 38.545c-.093.216-.353.339-.553.4-.521.185-.996-.061-1.456-.184.015-.123.169-.078.246-.154.505-.108 1.027-.216 1.564-.078.046-.03.153-.046.199.016M33.697 38.992c-.046.06-.06.2-.184.247-.106.045-.214 0-.306-.063-.03-.092-.138-.168-.061-.277.031-.11.153-.138.246-.169.153.016.275.107.305.262M34.602 39.13c-.046.093-.091.23-.214.294-.123.03-.215-.033-.307-.109-.045-.092-.092-.2-.045-.307.03-.078.137-.095.214-.14.153-.016.29.14.352.262M62.745 39.284c.015.124-.047.2-.108.292-.076.11-.23.124-.336.062-.108-.016-.14-.138-.186-.214-.091-.125.062-.202.107-.309.169-.14.444-.063.523.17M63.42 39.253c.015.079.06.155.03.217-.092.076-.154.276-.338.2-.092.03-.137-.094-.184-.124-.061-.155-.015-.385.184-.416.138-.046.231.077.307.123M34.05 39.7a.42.42 0 0 1-.153.416c-.17.03-.384.03-.445-.17-.016-.155 0-.353.185-.446.153-.016.336.015.414.2M34.925 39.638c-.031.431-.123.956-.553 1.201-.245.046-.49.277-.735.125v-.079c.32-.46.904-.816 1.288-1.247M60.337 39.993c.06.09-.047.17-.092.247-.092.107-.262.062-.368.015-.108-.048-.123-.2-.076-.31.03-.09.122-.137.2-.168.137-.017.26.107.336.216M36.459 40.701c.213.355.091.833.213 1.217-.26.03-.367-.261-.536-.415-.337-.463-.291-1.078-.445-1.619a.081.081 0 0 1 .108-.03c.23.154.398.448.582.646-.03.11.093.11.078.201M61.104 40.116c0 .124-.14.154-.215.231a.56.56 0 0 1-.29-.14c-.047-.152.074-.2.152-.276.154-.062.307.015.353.185M62.928 41.487c0 .048-.015.138-.092.107h-.062c-.443-.4-.888-.847-.827-1.463l.092-.015c.414.355.874.738.889 1.371M61.779 40.993c.016.123-.062.215-.139.294-.168.046-.43.03-.46-.2-.015-.155.154-.233.23-.308.184-.046.307.075.369.214M60.766 41.316c-.214.57-.799.863-1.196 1.295-.076-.047-.046-.17-.03-.23.152-.585.613-1.156 1.178-1.389.247.033 0 .202.048.324M61.917 41.779c0 .139-.139.2-.215.276-.123-.014-.245-.044-.338-.169-.015-.155.107-.199.2-.276.153-.031.29.047.353.169M50.527 13.942h-.17c-.445 0-.068.536.17.536.3 0 .318-.536 0-.536zm-1.375.536c.445 0 .023-.536-.216-.536h-.444c-.444 0-.024.536.216.536h.444zm-1.864 0c.444 0 .024-.536-.215-.536h-.443c-.445 0-.024.536.214.536h.444zm3.218-.658a.38.38 0 0 1 0 .761h-4.55a.38.38 0 0 1 0-.76h4.55zM50.537 20.85c0 .2.27.066.47.066.2 0 .47.133.47-.066 0-.286-.27-.187-.47-.187-.2 0-.47-.099-.47.187zm.852.473c.195 0 .212-.27.212-.5 0-.526-.416 0-.631-.496-.156.418-.584.032-.584.48 0 .31-.001.516.305.516h.698zm-1.283-2.3l.87.332.854-.332-.339 1.274.678-.14-.23.773.23.743-.6-.164.26 1.376-.853-.332-.87.332.354-1.376-.693.194.184-.773-.184-.74.664.107-.325-1.274zM48.071 20.898v-.162l-.145-.027.114-.118-.07-.13.148.015.09-.157.089.154.151-.013-.072.131.115.118-.145.027v.162l-.138-.103zM47.397 21.764v-.162l-.145-.028.114-.117-.072-.131.15.016.09-.157.089.154.15-.013-.07.131.115.117-.147.028v.162l-.137-.103zM48.54 21.654v-.162l-.144-.028.114-.118-.071-.13.15.016.09-.157.088.155.152-.014-.071.13.114.118-.146.028v.162l-.137-.103zM48.676 22.3v-.09l-.081-.017.064-.066-.04-.073.084.008.05-.089.05.088.086-.007-.04.073.064.066-.082.016v.092l-.077-.058zM47.614 23.04v-.276l-.25-.047.196-.205-.122-.222.256.027.155-.27.151.267.26-.024-.121.222.195.205-.25.047v.276l-.235-.175zM48.155 8.514l.539 1.324 1.37-.401-.695 1.249 1.167.824-1.409.234.086 1.429-1.058-.958-1.06.958.086-1.429-1.406-.234 1.166-.824-.695-1.25 1.369.402zM43.207 38.213c-.163.061-.226.105-.186.273l.193.812c.035.15.046.387-.054.532-.12.173-.373.285-.556.33-.134.031-.423.086-.656-.015-.153-.066-.253-.135-.318-.41l-.203-.849c-.05-.215-.13-.2-.303-.176l-.016-.063 1.028-.245.016.064c-.2.055-.293.08-.24.303l.2.852c.036.144.12.495.558.391.534-.128.449-.52.41-.681l-.184-.776c-.037-.158-.094-.235-.359-.18l-.015-.066.67-.16.015.064zM44.73 38.383c-.093-.167-.342-.42-.702-.34-.159.036-.31.15-.273.315.03.138.1.18.382.232l.488.087c.114.02.379.116.441.394.049.226-.078.58-.64.703-.29.064-.447.009-.541.03-.065.014-.069.062-.072.106l-.09.022-.138-.633.088-.02c.118.246.36.495.747.408.366-.08.326-.338.318-.37-.037-.17-.194-.201-.41-.235l-.223-.038c-.568-.093-.617-.313-.643-.43-.034-.156-.017-.523.563-.654.245-.053.407-.002.496-.021.07-.016.077-.058.081-.109l.092-.02.122.552-.085.021zM46.755 39.392l-1.112.105-.007-.064c.226-.038.3-.05.28-.268l-.131-1.374c-.217.03-.537.074-.559.498l-.09.009-.04-.525 1.867-.18.057.524-.09.009c-.102-.412-.425-.394-.64-.383l.13 1.372c.021.222.096.219.328.212l.007.065zM48 38.461c.41.006.574-.048.58-.39.005-.263-.12-.379-.37-.383-.172-.003-.18.024-.196.106L48 38.46zm1.355.929l-.641-.012-.63-.83-.086-.003-.01.513c-.004.208.064.219.271.245l-.001.067-1.056-.02v-.066c.213-.018.276-.024.28-.235l.023-1.159c.003-.224-.093-.231-.27-.245v-.066l1.007.02c.22.005.881.039.873.478-.007.322-.33.397-.5.438l.614.759c.043.047.09.051.128.053l-.002.063z" fill="#231F20"/><path d="M50.538 38.923l-.234-.67-.371.593.605.077zm.871.73l-1.005-.124.007-.066c.195.011.25.015.262-.07.01-.07-.067-.275-.1-.363l-.699-.087c-.11.177-.173.277-.179.317-.013.1.136.126.241.143l-.007.067-.63-.08.006-.065c.17 0 .226-.082.343-.266l.867-1.336.087.01.522 1.453c.105.295.144.39.294.402l-.009.065zM53.23 40.024l-1.78-.325.013-.065c.175.014.268.022.298-.135l.227-1.247c.03-.17-.094-.197-.232-.23l.012-.065 1.074.196-.013.066c-.215-.033-.312-.048-.353.178l-.22 1.216c-.024.124.04.158.247.195.465.087.677-.098.87-.362l.09.016-.233.562zM54.41 40.287l-1.072-.223.014-.065c.168.022.29.036.323-.122l.256-1.241c.037-.17-.108-.203-.246-.241l.013-.063 1.071.225-.013.063c-.145-.026-.292-.053-.328.12l-.257 1.242c-.034.162.086.196.253.24l-.013.065zM55.698 39.852l-.25-.665-.356.603.606.062zm.886.715l-1.007-.105.006-.066c.195.007.25.01.26-.076.006-.07-.073-.274-.109-.36l-.7-.074c-.106.179-.166.28-.17.322-.012.098.139.122.242.138l-.005.066-.633-.066.006-.065c.171-.003.224-.089.337-.273l.838-1.356.087.009.553 1.442c.112.293.152.387.302.397l-.007.067zM48.04 19.567c-.184 0-.432.125-.432-.092 0-.308.21-.239.393-.239.183 0 .47-.069.47.239 0 .217-.247.092-.431.092m.546-.12c0-.63-.353-.04-.55-.576-.142.453-.568.072-.568.558 0 .186.049.293.139.353v.185c0 .048.038.087.087.087h.669c.048 0 .087-.039.087-.087v-.2a.41.41 0 0 0 .136-.32M54.075 27.162c.16 0 .29-.114.29-.255 0-.14-.13-.253-.29-.253-.16 0-.288.112-.288.253 0 .14.128.255.288.255M52.715 17.848s-.135.228-.135.27c0 .084.061.152.138.152.075 0 .138-.068.138-.151 0-.005-.14-.27-.14-.27M43.451 17.848s-.135.228-.135.27c0 .084.062.152.138.152.076 0 .137-.068.137-.151 0-.005-.14-.27-.14-.27M45.767 17.848s-.136.228-.136.27c0 .084.062.152.138.152.076 0 .138-.068.138-.151 0-.005-.14-.27-.14-.27M48.083 17.848s-.137.228-.137.27c0 .084.062.152.138.152.076 0 .138-.068.138-.151 0-.005-.14-.27-.14-.27M50.4 17.848s-.136.228-.136.27c0 .084.062.152.138.152.077 0 .138-.068.138-.151 0-.005-.14-.27-.14-.27M43.456 21.019s.135.227.135.27c0 .082-.061.15-.137.15-.076 0-.138-.068-.138-.15 0-.004.14-.27.14-.27M43.456 24.099s.135.227.135.27c0 .082-.061.15-.137.15-.076 0-.138-.068-.138-.15 0-.004.14-.27.14-.27M43.826 26.537s.136.227.136.271c0 .082-.062.15-.138.15-.076 0-.138-.068-.138-.15 0-.006.14-.27.14-.27M45.768 27.832s.136.228.136.271c0 .084-.061.151-.137.151-.076 0-.138-.067-.138-.15 0-.005.14-.272.14-.272M52.833 21.019s-.135.227-.135.27c0 .082.062.15.138.15.076 0 .137-.068.137-.15 0-.004-.14-.27-.14-.27M52.833 24.099s-.135.227-.135.27c0 .082.062.15.138.15.076 0 .137-.068.137-.15 0-.004-.14-.27-.14-.27M52.462 26.537s-.136.227-.136.271c0 .082.062.15.138.15.077 0 .139-.068.139-.15 0-.006-.14-.27-.14-.27M50.52 27.832s-.134.228-.134.271c0 .084.061.151.137.151.076 0 .137-.067.137-.15 0-.005-.14-.272-.14-.272M48.155 29.207s-.136.228-.136.27c0 .083.061.15.137.15.076 0 .138-.067.138-.15 0-.006-.14-.27-.14-.27M51.924 24.612c.029.043.103.059.194.026l.088-.249c.008-.017-.102-.116-.166-.1-.248.06-.51.089-.655.323 0 .16.116.306.234.38.088-.03.1.06.16.101.013.074-.03.133-.102.133-.176-.175-.48.058-.612-.162.057-.218.173-.468-.016-.672.016-.043.088-.088.045-.132-.073-.204-.292-.044-.423-.044-.219-.03-.394.088-.525.263a.415.415 0 0 0 .117.22c.059-.014.088 0 .104.06l-.149.087c.045.043.045.102.06.16-.104.045-.204-.102-.248-.175 0-.117.014-.322-.146-.352a.61.61 0 0 0-.127.044c-.037.044-.059.135-.059.241 0 .105.057.263.057.263s.45.33.552.536c-.133.263-.133.629-.438.774-.087.06-.087.147-.087.236l.073.058c.19-.103.554-.132.525-.454.072-.132.147-.278.277-.381a.306.306 0 0 1 .336.162.578.578 0 0 1-.395.438c-.03.03-.014.073-.014.118.058.101.218.059.305.044.248-.162.35-.455.568-.543.03.147-.29.192-.087.337.131-.03.307.015.394-.16-.102-.249.35-.366.073-.586 0-.218.233-.306.217-.542-.087-.233-.364-.233-.435-.452.088-.06.218-.045.305 0M41.281 27.274c.16 0 .29-.113.29-.255 0-.14-.13-.254-.29-.254-.16 0-.289.114-.289.254 0 .142.13.255.29.255M26.262 36.02c.157 0 .284-.12.284-.27a.278.278 0 0 0-.284-.272.278.278 0 0 0-.284.272c0 .15.127.27.284.27M35.781 38.12c.012 0 .016-.002.016-.012 0-.007-.003-.01-.01-.01-.006 0-.006 0-.006.003v.019zm.04.027h-.02l-.018-.024h-.002v.014c0 .007.002.007.008.008v.002h-.03v-.002c.006-.001.007-.001.007-.008v-.033c0-.007-.003-.007-.007-.007v-.002h.028c.007 0 .026.002.026.013 0 .009-.01.012-.014.013l.018.023.004.001v.002zM35.86 38.111c-.002-.008-.006-.014-.017-.014-.005 0-.01 0-.01.005s.002.008.01.01l.013.005c.002.001.01.007.01.015 0 .007-.005.016-.022.016-.009 0-.013-.003-.016-.003-.002 0-.003.001-.004.003h-.002v-.02h.002c.003.008.008.017.02.017.011 0 .012-.008.012-.009 0-.004-.005-.006-.012-.009l-.005-.001c-.016-.008-.016-.013-.016-.016 0-.007.003-.015.02-.015.008 0 .012.002.015.002.002 0 .003-.002.003-.002h.003v.016h-.003zM35.958 38.098c-.004 0-.006 0-.007.003l-.018.046h-.002l-.017-.034-.016.034h-.003l-.018-.046c-.003-.003-.003-.003-.008-.003v-.003h.027v.003l-.005.001v.003l.011.028.01-.023-.002-.008-.007-.001v-.003h.03v.003l-.008.001.001.005.01.026.01-.028V38.1l-.005-.001v-.003h.017v.003zM35.98 38.124l.005-.001v-.007c0-.016-.001-.02-.007-.02-.005 0-.005.004-.005.01 0 .01.002.018.008.018zm-.02.021c.01-.002.02-.006.024-.02l-.004.002h-.005c-.006 0-.016-.003-.016-.016 0-.004.003-.016.02-.016.008 0 .021.002.021.022 0 .013-.013.028-.04.031v-.003zM36.012 38.111c.008 0 .014.002.02.005.003 0 .01.005.01.013 0 .01-.01.019-.027.019-.007 0-.013-.003-.013-.008 0-.003.002-.005.006-.005.006 0 .011.007.017.007.003 0 .01-.002.01-.009 0-.003-.007-.007-.01-.009-.007-.003-.013-.003-.02-.003l.009-.026h.03l-.005.008h-.025l-.002.008z" fill="#231F20"/><path d="M53.183 25.734c-.055.616-.265 1.13-.692 1.42l-4.032 2.554h-.021a.495.495 0 0 1-.625-.005l-4.023-2.548c-.428-.292-.637-.805-.694-1.42v-7.967h10.087v7.966zm.303-8.252v-.006h-10.69v.006h-.002l.009 8.144c0 .83.353 1.557.84 1.78l4.11 2.602a.5.5 0 0 0 .709.038l4.174-2.64c.49-.223.842-.95.842-1.78l.008-8.144z" fill="#231F20"/><path d="M49.58 29.353l.13-.064a.62.62 0 0 0-.13.064M40.499 39.978l-.387-.594-.22.665.607-.07zm1.017.504l-1.007.118-.007-.065c.191-.036.247-.045.237-.132-.008-.07-.13-.25-.183-.328l-.699.08c-.065.198-.104.31-.098.35.011.1.161.09.267.083l.008.067-.63.072-.009-.065c.166-.04.199-.134.271-.34l.526-1.504.087-.01.849 1.288c.173.26.232.346.38.322l.008.064z" fill="#231F20"/><path d="M58.82 37.25c-.14.279-.354.479-.66.526.014-.37.352-.633.229-1.048-.199-.292-.598-.385-.966-.308-.138.091-.076.246-.123.384l-.061.509c-.307 0-.322-.277-.413-.493.016-.323.152-.647.474-.8.245-.124.644-.108.89.032.199.044.431.136.506.321.23.217.168.602.124.878zm-1.243.156c.169-.17-.047-1.141.429-.51 0 .124.016.31-.107.4-.077.062-.2.186-.322.11zm.169.385c.014.245-.216.183-.339.277h-.367c-.077-.123-.046-.308-.046-.432.245.046.522.046.752.155zm.428 1.878c-.12.155-.014.4-.168.539 0 .277-.23.415-.429.525-1.825.399-3.618-.217-5.383-.525-2.47-.539-5.354-.693-7.87-.124-1.18.218-2.33.493-3.465.817-.706.091-1.472.2-2.147-.015-.55-.263-.322-.97-.49-1.462.03-.387-.108-.694-.123-1.065a.915.915 0 0 1-.062-.4c.23.031.461.2.706.262 1.288.247 2.438-.169 3.634-.385 1.151-.245 2.331-.445 3.543-.54 1.38-.013 2.791-.09 4.112.14.428.017.797.124 1.21.155.861.107 1.657.338 2.531.4.139.045.307.045.46.077 1.38.215 2.93.599 4.249 0 0 .555-.23 1.062-.308 1.601zm-7.79 1.125c.076.215.215.415.14.678-.154.293-.463.293-.738.352a.474.474 0 0 1-.353-.106c.014-.06-.016-.108-.062-.154.046-.2-.354-.4-.077-.572.246-.228.83-.752 1.09-.198zm.338.06c.184.047.198.247.215.401-.017.34-.2.63-.522.757-.17.09-.43.122-.6.06.37-.017.77-.155.922-.524l-.015-.694zm.4 2.05c-.033.014-.033.046-.033.062-.445.014-.735-.248-1.073-.478L50 42.41c.415.03.753.294 1.121.494zm-.569 1.417c-.016.045-.093.045-.122.015-.46-.586-.676-1.202-.968-1.848l.061-.015c.37.6.66 1.264 1.03 1.848zm-.767-.37l-.077.032c-.076-.063-.047-.233-.032-.325.093.079.171.185.109.293zm-.431-.923c.016.152.17.214.078.354-.031-.062-.124-.202-.078-.354zm-.092-.972h.031v-.044h-.031v.044zm-.889 2.218c-.291.016-.736.184-1.013-.061.016-.124-.122-.187-.107-.31.246-.09.46.202.69-.014.353.014.721-.046 1.073.03.17.046.43-.277.46.046-.122.509-.736.157-1.103.31zM47.7 42.44l.077-.122a6.649 6.649 0 0 1-.507 1.109c-.092-.368.291-.661.43-.987zm.43-.29c.198-.217.383.122.46.29.23.34.828.65.598 1.11-.292.262-.752.017-1.074.216-.169-.016-.461.03-.553-.14.17-.492.323-1.045.569-1.476zm-.046-.586h-.062l.092-.092c.046.03-.015.062-.03.092zm.352.03c.06-.092.138-.23.245-.23 0 .015.015.03.031.046-.092.077-.168.154-.276.184zm.215.23c.03-.029.107-.029.138 0h-.138zm.413.478c-.016.031.016.079-.031.108l-.352-.276c.169-.031.292.045.383.168zm-.046-.892h.015v-.047h-.015v.047zm.66-1c-.183.06-.322.275-.506.323.092-.17.323-.34.506-.324zm-.767-.202c-.03-.14.137-.03.2-.092l.477.03c-.247-.03-.555.54-.677.062zm-1.119.43c.077-.213.092-.398.23-.57.153 0 .292 0 .414.063.03.309.414.723 0 .986-.138.06-.337.199-.49.06-.2-.168-.232-.323-.154-.538zm-.23.956c-.016-.06.03-.138.046-.215.076-.078.153.062.184.108a.23.23 0 0 1-.23.107zm-.031-.708h.015v-.17h-.015v.17zm-.169-.461c-.198-.046-.307-.28-.52-.28.183-.06.367-.045.582-.014.077.109-.046.2-.062.294zm-.168 1.247c.046-.2.137-.463.245-.648-.015.2-.108.478-.245.648zm-.338 0a3.672 3.672 0 0 1-.735-.185c-.154-.153 0-.324 0-.495.214-.336.827-.507 1.119-.198-.046.338-.169.63-.384.878zm.138.415v.063h-.03v-.078h.061c-.015 0-.047 0-.061.015h.03zm-.383.893c-.214.494-.46.97-.752 1.448-.03.077-.153.092-.245.11 0-.217.215-.387.307-.573.322-.415.414-.861.782-1.26.091.09-.092.152-.092.275zm-1.457-.154c.369-.154.752-.476 1.166-.338-.292.23-.767.324-1.166.338zm.552-1.061c-.076-.54.14-1.001.492-1.386.213-.048.46-.093.658.03-.398.107-.904.2-.997.708.016.199-.046.308.047.477.168.292.552.17.766.4 0 .078-.06.171-.138.185-.261-.153-.582-.215-.828-.414zm-7.192-4.945c.046-.123 0-.309.168-.34.108-.03.277-.03.292.095-.015.183-.03.368-.076.536-.216.016-.322-.107-.384-.291zm.046.518c.23.17.552.09.828.138.046.17.046.385-.076.523-.26-.06-.6-.03-.736-.276.03-.109-.047-.262-.016-.385zm-.72-.441c.045-.278.107-.57.367-.77.369-.2.874-.154 1.212.046a.591.591 0 0 1 .246.293c.076.262-.047.538-.231.692h-.153c0-.245 0-.492.092-.692-.015-.185-.17-.201-.292-.278-.26-.076-.49.047-.69.155-.153.185-.291.415-.199.677.108.17.015.4.076.585l-.045.062c-.185-.2-.43-.416-.383-.77zm14.39 6.547c.367.164 1.104.326 1.636.385-.047.21-.422.014-.378.308-.476-.185-1.027-.278-1.38-.647.03-.016.061-.062.123-.046zm-9.576.245l-.214-.2c.108-.138.338-.062.505-.154.4-.122.86-.276 1.305-.186-.46.37-1.059.418-1.596.54zm16.565-7.023c-.185-.478-.568-.8-1.044-.955-.491-.108-1.011-.032-1.332.341-.554.445-.17 1.184-.155 1.784 0 .124.016.216-.108.278-2.223-.2-4.293-.756-6.502-.987-.508-.086-1.017-.064-1.5-.164l-.617-.066c-1.917.062-3.834.17-5.628.632-.384.123-.813.153-1.196.291-.277-.044-.506.154-.767.078l-.506.118a.412.412 0 0 1-.169-.011c-.245-.63.49-1.016.261-1.632-.2-.354-.598-.694-1.058-.63-.522-.064-.982.23-1.227.63-.353.77.091 1.572.23 2.326-.031.245.245.523 0 .725-.491-.34-1.136-.525-1.733-.356-.184.093-.522-.03-.613.185.659.355 1.503.309 2.238.277.092-.03.154-.046.23.016.062.4-.076.94.17 1.294.275.369.736.461 1.18.508 1.411-.047 2.668-.462 3.956-.784.2-.017.352-.124.569-.124.689-.154 1.44-.278 2.176-.295-.321.419-.506.88-.643 1.389-.184.415.322.478.475.707-.475.14-.813.463-1.258.648-.981-.032-1.809.337-2.73.446-.015.2.322.14.353.34-.046.137-.183.152-.291.228-.016.094 0 .109.092.123.092-.106.29-.029.384-.137.306 0 .567-.093.858-.11.261-.105.552-.121.781-.305.323-.092.523-.309.845-.402.46 0 .873-.154 1.303-.183v.091c-.353.57-.72 1.155-1.089 1.695-.061.108.016.214.107.246.215.062.43 0 .598-.091.322-.556.614-1.08.875-1.65.107-.523.49-.8.874-1.154.061-.032.153-.123.215-.032-.307.356-.506.693-.736 1.078-.123.431-.154.987.23 1.341.184.153.46.107.705.124.598-.309 1.365.184 1.827-.402.275-.046.322.278.475.431.261.076.537.34.798.155-.016-.17-.201-.323-.292-.477-.185-.324-.414-.586-.583-.879-.076-.216-.214-.354-.246-.57.277.094.523.277.829.323.26.108.583.095.828.247.2.262.506.414.767.586.383.184.813.216 1.212.37.152.015.384.137.49 0a.653.653 0 0 0-.23-.17c-.046-.2.276-.092.384-.248-.038-.074-.106-.104-.178-.116-.22-.116-.767-.157-.912-.237-.183-.03-.352-.106-.536-.168-.921 0-1.426-.834-2.162-1.141.168-.154.428-.277.536-.51.139-.213.184-.568.048-.813-.14-.478-.753-.418-1.106-.678l.046-.048c.599-.03 1.12.11 1.657.217 1.472.2 2.836.754 4.37.785.844 0 1.901.046 2.316-.77.076-.478.168-.954.245-1.432.184-.77.69-1.48.614-2.326z" fill="#231F20"/><path d="M186.537 8.16c-1.202 41.251-4.594 36.826 29.11 52.888L186.537 8.16z" fill="#35BFC9"/><path d="M184.391 8.038c-2.984 42.329 1.669 35.269-44.64 60.745l44.64-60.745z" fill="#0078C1"/><path d="M140.81 70.688c25.318-5.318 56.698-7.878 73.69-7.878-35.35-14.943-27.777-15.66-73.69 7.878" fill="#203D79"/></g></svg>
