<svg id="Layer_1" data-name="Layer 1" xmlns="http://www.w3.org/2000/svg" viewBox="0 0 226.69 271.69"><title>simulation icon</title><g id="NewGroupe0"><path d="M609.48,301.38c-8.12-11.1-27-11.7-54.43-1.73h0a1.32,1.32,0,0,0-.31,2.33,96.91,96.91,0,0,1,10.86,8.7,1.33,1.33,0,0,0,1.31.29c9.28-2.88,16.14-3.9,21-3.9,5.71,0,8.75,1.4,9.83,2.88,2,2.74,1.75,11.79-10.26,29.11a1.36,1.36,0,0,0-.11,1.35,96,96,0,0,1,5,13,1.32,1.32,0,0,0,2.32.41c17.78-23.2,22.89-41.32,14.76-52.41Z" transform="translate(-386.56 -245.81)"/><path d="M468,290.34a94.45,94.45,0,0,1,13.45-3.62,1.35,1.35,0,0,0,1-.88c6.86-19.93,14-25.5,17.41-25.5s10.55,5.57,17.42,25.5a1.35,1.35,0,0,0,1,.88,95.3,95.3,0,0,1,13.44,3.62,1.32,1.32,0,0,0,1.7-1.61v0c-8.2-28.06-19.81-42.89-33.56-42.89s-25.35,14.83-33.56,42.89v0a1.32,1.32,0,0,0,1.7,1.61Z" transform="translate(-386.56 -245.81)"/><path d="M555,463.66h0c13,4.72,24,7.06,32.94,7.06,9.94,0,17.2-2.93,21.49-8.78,8.13-11.1,3-29.22-14.76-52.42l0,0a1.31,1.31,0,0,0-2.3.42,96.93,96.93,0,0,1-5,13,1.35,1.35,0,0,0,.11,1.33c12,17.31,12.29,26.38,10.27,29.12s-10.73,5.22-30.88-1a1.33,1.33,0,0,0-1.3.3,96.8,96.8,0,0,1-10.85,8.7,1.32,1.32,0,0,0,.3,2.33Z" transform="translate(-386.56 -245.81)"/><path d="M411.81,470.73c8.91,0,19.95-2.34,32.94-7.06h0a1.32,1.32,0,0,0,.3-2.33,97.71,97.71,0,0,1-10.85-8.7,1.33,1.33,0,0,0-1.3-.3c-20.16,6.26-28.87,3.78-30.89,1s-1.74-11.81,10.28-29.12a1.35,1.35,0,0,0,.11-1.33,95.09,95.09,0,0,1-5-13,1.32,1.32,0,0,0-2.31-.42l0,0c-17.77,23.2-22.88,41.32-14.75,52.42,4.28,5.85,11.55,8.78,21.49,8.78Z" transform="translate(-386.56 -245.81)"/><path d="M432.92,311a1.33,1.33,0,0,0,1.3-.3,98.88,98.88,0,0,1,10.85-8.7,1.32,1.32,0,0,0-.3-2.33h0c-27.48-10-46.31-9.37-54.43,1.73s-3,29.21,14.75,52.41l0,0a1.32,1.32,0,0,0,2.3-.42,95.77,95.77,0,0,1,5-13,1.35,1.35,0,0,0-.11-1.33C400.29,321.76,400,312.7,402,310s10.73-5.22,30.89,1Z" transform="translate(-386.56 -245.81)"/><path d="M531.77,473a96.67,96.67,0,0,1-13.44,3.62,1.34,1.34,0,0,0-1,.87c-6.87,19.94-14,25.5-17.42,25.5s-10.55-5.56-17.41-25.5a1.34,1.34,0,0,0-1-.87A95.8,95.8,0,0,1,468,473a1.31,1.31,0,0,0-1.7,1.61v0c8.21,28.06,19.81,42.89,33.56,42.89s25.36-14.83,33.56-42.89v0a1.31,1.31,0,0,0-1.7-1.61Z" transform="translate(-386.56 -245.81)"/><path d="M507.12,373.48l-18.46-58.29L547,333.64l18.45,58.3-58.29-18.46Zm14.26,74.06-65.82-15.8,47.78-44.8,59.73,18.91-41.69,41.69Zm-90-86.6,43.41-43.41L493.57,377l-48.16,45.15-14.07-61.17Zm150.31,46,.13-.18c.14-.2.27-.39.39-.59l.08-.15a8.17,8.17,0,0,0,.38-.79l0-.07c.09-.24.17-.49.24-.74a1.6,1.6,0,0,1,.05-.21,6,6,0,0,0,.12-.74l0-.11a5.71,5.71,0,0,0,0-.83c0-.08,0-.15,0-.23a5.08,5.08,0,0,0-.07-.67,1.38,1.38,0,0,0,0-.2,6.39,6.39,0,0,0-.2-.84v0L559.18,326a7,7,0,0,0-4.55-4.55l-74.58-23.61h0a6,6,0,0,0-.84-.2l-.2,0a4.93,4.93,0,0,0-.66-.07h-.24a5.76,5.76,0,0,0-.83,0l-.13,0c-.24,0-.48.07-.71.12l-.22.06a6,6,0,0,0-.72.22l-.09,0a6.91,6.91,0,0,0-.78.36l-.17.1c-.19.12-.38.24-.56.37l-.2.15a8.14,8.14,0,0,0-.63.54l0,0L418.73,353.8a7,7,0,0,0-1.87,6.51l17.66,76.76,0,.13v.1l.05.14c.07.22.14.43.22.63s.05.13.07.2a7.13,7.13,0,0,0,.88,1.49l.09.11a7.17,7.17,0,0,0,.52.58l.07.07a5.18,5.18,0,0,0,.67.57l.07.05a7.49,7.49,0,0,0,.63.41l.19.11c.23.12.48.24.73.34l0,0c.27.1.55.18.83.26l.08,0L521.92,462a7,7,0,0,0,6.57-1.85l52.58-52.58a7.21,7.21,0,0,0,.58-.66Z" transform="translate(-386.56 -245.81)"/></g></svg>