<svg id="Layer_1" data-name="Layer 1" xmlns="http://www.w3.org/2000/svg" viewBox="0 0 458.05 356.44"><defs><style>.brain-cls-1{fill:#0076c2; stroke-width: 15px;}</style></defs><title></title><path class="brain-cls-1" d="M607.39,238.82c7.43,5.77,15.26,10.52,21.42,16.89,16.26,16.82,21.8,37.85,21.1,60.71-.46,15-3.94,29.48-12.47,42-4.42,6.48-10.7,11.68-16,17.58-1.15,1.28-2.4,3-2.51,4.61-3.56,50.07-42.27,78.82-84,83.58-28.75,3.28-54.93-3.25-77.48-22.11a13.74,13.74,0,0,1-2.92-2.7c-3.8-5.93-8.13-5.24-14.07-2.72-18.3,7.79-37.39,11.92-57.5,10-33.74-3.28-57.61-28.24-59.09-62.18-.24-5.55,0-11.12,0-16.45-9.52,2.63-18.91,5.73-28.53,7.78-19.64,4.16-39.24,3.87-57.93-4.21-27.19-11.76-41.58-33.19-44.86-62.22-2.26-20.07,2.2-39.08,10.25-57.41a11.06,11.06,0,0,0,1-5.87c-5.29-32.71,7.16-58.14,32.26-78.15a67.25,67.25,0,0,1,36.24-14.31,5.52,5.52,0,0,0,3.57-2c24.48-33.85,57.88-43.27,97.43-35.49,6.48,1.27,12.66,4,19.06,5.74a7,7,0,0,0,5.17-.48c32.51-22.08,87-15.12,114.56,16.19a5.92,5.92,0,0,0,6.41,2.24c19.14-3.44,36.53,1.65,52.07,12.55,24.27,17,38.83,39.87,38.78,70.4C609.31,228.35,608,233.9,607.39,238.82ZM416.7,290.14c.91-.1,1.63-.12,2.33-.25,14.25-2.57,28.47-5.26,42.75-7.64,3.13-.52,4.26-2.07,4.71-4.8,2.65-16.14,2.15-31.81-6.33-46.47a7.61,7.61,0,0,1-.52-5.74c.54-1.44,3-3.35,4.14-3.09,2.31.5,5.27,1.84,6.31,3.74,10.82,19.61,11.91,40.16,5.13,61.31-1.27,3.93-4.19,5.22-8.11,5.63a287,287,0,0,0-57.73,11.68c-19.15,6.08-37.41,14-52.63,27.6-16,14.3-23.21,32-21.51,53.46,2.16,27.25,21.05,46.89,48.16,49.61,25,2.5,48.16-4,68.9-17.24,26.05-16.67,51.34-34.48,79.22-48.1,3.65-1.78,7.09-4,10.61-6-1.56-3.65-3.19-6.82-4.29-10.17-1-3.16-.15-6,3.29-7.2s6.14-.33,7.81,3c.39.79.67,1.65,1,2.45,5.73,12.67,15.44,20.5,29.1,22.84,18.22,3.13,33.69-2.87,45-17,14.9-18.57,17.6-40.42,12.73-63.08-4.64-21.56-16.59-37.71-37.93-45.66a73.53,73.53,0,0,0-10.26-2.75c-3.77-.82-5.79-3-5.49-6.82.24-3.07,3.4-4.71,7.57-4.19,1.71.21,3.41.5,5.71.84.62-4.24,1.52-8.13,1.71-12.06,1.34-28.74-18.83-58.3-47.41-69.72-9.8-3.92-19.88-5.7-30.39-3.56a45.2,45.2,0,0,0-25.19,14.54c5.45,2.78,10.71,4.9,15.38,7.94,16.67,10.89,23.46,27.16,24.18,46.42a8.51,8.51,0,0,0,3.09,6.84c14.38,12.46,19.79,28.31,17,47-.81,5.34-2.14,10.59-3.29,16.11,1.61.27,2.91.5,4.21.7a71.65,71.65,0,0,1,37.84,18.17c3.09,2.78,3.51,6.42,1.18,9s-5.35,2.41-8.65-.31c-1.25-1-2.44-2.16-3.73-3.15-14.1-10.81-29.8-15.75-47.43-11.67-21.58,5-34.78,19.16-41.46,39.77-1.5,4.64-4,6.3-8.86,6.88-11.71,1.38-23.53,2.83-34.94,5.69-18.16,4.56-34.56,13-48.25,26.1-2.62,2.51-5.55,2.93-8.26.27s-2.5-5.57-.29-8.4a23.11,23.11,0,0,1,3.17-3.08,112.45,112.45,0,0,1,46.6-24.8c11.58-2.94,23.37-5.19,35.16-7.19,3.65-.62,5.12-2.14,6.55-5.28,9.14-20.13,23.43-35.25,45.44-40.15,8.66-1.93,11.33-6.16,12.53-13.41.14-.88.42-1.73.6-2.6,3.44-16.36.09-30.77-13.33-41.49-4.71-3.76-6.28-7.62-6.25-13.48.12-21.62-10-36.06-30.09-44a72.35,72.35,0,0,0-41-4c-21.52,4.13-37.4,15.81-45.75,36.47-5.47,13.56-2.71,27.07,7.45,36.26,3.75,3.38,4.85,6.73,3.38,11.33a41.29,41.29,0,0,0-1.08,5.22C414.57,271.59,414,280.79,416.7,290.14Zm-31-158.48c-1.61-.66-2.93-1.29-4.3-1.75-13.36-4.47-27.12-7-41.06-4.7-28,4.7-51.37,16-60.21,46.15-.52,1.77-3.48,3.7-5.49,3.94-2.85.33-4.85-1.87-5.06-5-.1-1.55,0-3.12,0-4.84-1.66.23-2.85.3-4,.57-41.32,9.8-68.62,63.94-40.24,99.75,2.71,3.43,2.3,6.84-.59,8.95s-6,1.63-8.86-1.79c-1.86-2.26-3.49-4.71-5.28-7.14-4.31,7.3-7,19.33-7.31,32.63-.86,34.54,19.59,60.25,53.44,66.51,24.25,4.5,46.95-1.58,68.91-11.46a6.41,6.41,0,0,0,3-3c4.93-11.56,12.66-21,22.13-29,1.85-1.59,2.12-2.91.23-4.7a46.73,46.73,0,0,1-13.55-24c-.59-2.55-2.06-3.32-4.49-3.08-3.83.37-7.66.67-11.49,1-19.88,1.42-38,7-52.74,21.31-3.25,3.15-6.66,2.94-9.29-.14s-1.49-6,1.12-8.56a83.8,83.8,0,0,1,30.69-19c12.69-4.47,25.91-5.95,39.2-6.86,3.75-.25,5-2,5.38-5.48a142,142,0,0,1,2.87-16.55c.68-2.83.21-4.39-1.86-6.51a107.13,107.13,0,0,1-10.23-12.69c-1.58-2.19-2.44-4.9-3.71-7.55-3,1.5-5.42,2.88-8,4-17.43,7.55-34.66,8-51.56-1.62-2.67-1.53-4.77-3.83-3.53-6.82.82-2,3.09-3.76,5.14-4.68,1.22-.54,3.45.43,4.92,1.25,14.78,8.24,29.25,6.65,43.5-1.27,4.35-2.42,6.8-5.62,7-11.24.67-15.52,7.49-27.77,21.47-35.46,4.44-2.44,8.34-2,10.18,1.17s.17,6.06-3.7,9.18c-4.18,3.38-8.69,6.93-11.44,11.39-7.72,12.57-5.06,32.32,5.18,43a24,24,0,0,0,6.84,4.74c4.82,2.34,6,4.7,3.86,9.42a60,60,0,0,0-5.12,29.86c.76,10.36,4.15,19.67,12,26.9,1.91,1.77,3.81,3.34,7,1.84q17-8,34.34-15.41c2.72-1.17,3.64-2.58,3-5.38-2.39-10-1.63-20,.59-29.91.77-3.47,0-5.76-2.31-8.33-7.2-8.07-11-17.72-10.27-28.49,1.48-22.8,13.62-39.33,32.4-51.1,16.18-10.13,34.16-12.67,53-10.29,2,.25,4.66.79,5.86-.21,6.53-5.41,12.7-11.26,19.29-17.24.15.55.16.21,0,0-.8-.88-1.61-1.74-2.47-2.55A73.72,73.72,0,0,0,462.71,122c-27.82-5.24-53.52-2.7-72.12,22.36-2,2.64-4.84,2.95-7.51,1.19s-3.23-4.54-1.64-7.39C382.65,136,384.16,134,385.71,131.66Zm73,296.83c2.65,2.12,4.5,3.56,6.3,5.05,20.65,17.1,44.55,22.71,70.64,19.07,28.6-4,50.65-18.1,64.09-44.24a56.48,56.48,0,0,0,6.48-23.5c-1.68.33-2.82.52-3.95.79-17.85,4.28-34.38,1.84-49-9.88-2.26-1.82-4-1.19-6-.08-19.62,10.94-39.39,21.63-58.79,32.94C478.66,414.35,469.52,421.2,458.66,428.49Z" transform="translate(-191.92 -108.55)"/></svg>